<svg width="48" height="48" viewBox="0 0 48 48" fill="none" xmlns="http://www.w3.org/2000/svg">
<path d="M4 24C4 16.458 4 12.686 6.344 10.344C8.688 8.002 12.458 8 20 8H28C35.542 8 39.314 8 41.656 10.344C43.998 12.688 44 16.458 44 24V28C44 35.542 44 39.314 41.656 41.656C39.312 43.998 35.542 44 28 44H20C12.458 44 8.686 44 6.344 41.656C4.002 39.312 4 35.542 4 28V24Z" stroke="black" stroke-width="1.5"/>
<path d="M14 8V5M34 8V5M5 18H43" stroke="black" stroke-width="1.5" stroke-linecap="round"/>
<path d="M36 34C36 34.5304 35.7893 35.0391 35.4142 35.4142C35.0391 35.7893 34.5304 36 34 36C33.4696 36 32.9609 35.7893 32.5858 35.4142C32.2107 35.0391 32 34.5304 32 34C32 33.4696 32.2107 32.9609 32.5858 32.5858C32.9609 32.2107 33.4696 32 34 32C34.5304 32 35.0391 32.2107 35.4142 32.5858C35.7893 32.9609 36 33.4696 36 34ZM36 26C36 26.5304 35.7893 27.0391 35.4142 27.4142C35.0391 27.7893 34.5304 28 34 28C33.4696 28 32.9609 27.7893 32.5858 27.4142C32.2107 27.0391 32 26.5304 32 26C32 25.4696 32.2107 24.9609 32.5858 24.5858C32.9609 24.2107 33.4696 24 34 24C34.5304 24 35.0391 24.2107 35.4142 24.5858C35.7893 24.9609 36 25.4696 36 26ZM26 34C26 34.5304 25.7893 35.0391 25.4142 35.4142C25.0391 35.7893 24.5304 36 24 36C23.4696 36 22.9609 35.7893 22.5858 35.4142C22.2107 35.0391 22 34.5304 22 34C22 33.4696 22.2107 32.9609 22.5858 32.5858C22.9609 32.2107 23.4696 32 24 32C24.5304 32 25.0391 32.2107 25.4142 32.5858C25.7893 32.9609 26 33.4696 26 34ZM26 26C26 26.5304 25.7893 27.0391 25.4142 27.4142C25.0391 27.7893 24.5304 28 24 28C23.4696 28 22.9609 27.7893 22.5858 27.4142C22.2107 27.0391 22 26.5304 22 26C22 25.4696 22.2107 24.9609 22.5858 24.5858C22.9609 24.2107 23.4696 24 24 24C24.5304 24 25.0391 24.2107 25.4142 24.5858C25.7893 24.9609 26 25.4696 26 26ZM16 34C16 34.5304 15.7893 35.0391 15.4142 35.4142C15.0391 35.7893 14.5304 36 14 36C13.4696 36 12.9609 35.7893 12.5858 35.4142C12.2107 35.0391 12 34.5304 12 34C12 33.4696 12.2107 32.9609 12.5858 32.5858C12.9609 32.2107 13.4696 32 14 32C14.5304 32 15.0391 32.2107 15.4142 32.5858C15.7893 32.9609 16 33.4696 16 34ZM16 26C16 26.5304 15.7893 27.0391 15.4142 27.4142C15.0391 27.7893 14.5304 28 14 28C13.4696 28 12.9609 27.7893 12.5858 27.4142C12.2107 27.0391 12 26.5304 12 26C12 25.4696 12.2107 24.9609 12.5858 24.5858C12.9609 24.2107 13.4696 24 14 24C14.5304 24 15.0391 24.2107 15.4142 24.5858C15.7893 24.9609 16 25.4696 16 26Z" fill="black"/>
</svg>
