<svg width="48" height="48" viewBox="0 0 48 48" fill="none" xmlns="http://www.w3.org/2000/svg">
<path d="M43.5919 15.0919L19.5919 39.0919C19.3828 39.3017 19.1344 39.4681 18.8609 39.5816C18.5875 39.6952 18.2942 39.7537 17.9981 39.7537C17.702 39.7537 17.4088 39.6952 17.1353 39.5816C16.8618 39.4681 16.6134 39.3017 16.4044 39.0919L5.90435 28.5919C5.69506 28.3826 5.52904 28.1341 5.41577 27.8607C5.3025 27.5872 5.2442 27.2941 5.2442 26.9981C5.2442 26.7022 5.3025 26.4091 5.41577 26.1356C5.52904 25.8622 5.69506 25.6137 5.90435 25.4044C6.11365 25.1951 6.36212 25.0291 6.63557 24.9158C6.90903 24.8025 7.20212 24.7442 7.4981 24.7442C7.79409 24.7442 8.08718 24.8025 8.36064 24.9158C8.63409 25.0291 8.88256 25.1951 9.09185 25.4044L18 34.3125L40.4081 11.9081C40.8308 11.4854 41.4041 11.248 42.0019 11.248C42.5996 11.248 43.1729 11.4854 43.5956 11.9081C44.0183 12.3308 44.2558 12.9041 44.2558 13.5019C44.2558 14.0997 44.0183 14.673 43.5956 15.0956L43.5919 15.0919Z" fill="black"/>
</svg>
