<svg width="48" height="48" viewBox="0 0 48 48" fill="none" xmlns="http://www.w3.org/2000/svg">
<path d="M42.5 24H17.79M9.068 24H5.5M9.068 24C9.068 22.8437 9.52736 21.7347 10.345 20.917C11.1627 20.0994 12.2717 19.64 13.428 19.64C14.5843 19.64 15.6933 20.0994 16.511 20.917C17.3286 21.7347 17.788 22.8437 17.788 24C17.788 25.1564 17.3286 26.2654 16.511 27.083C15.6933 27.9007 14.5843 28.36 13.428 28.36C12.2717 28.36 11.1627 27.9007 10.345 27.083C9.52736 26.2654 9.068 25.1564 9.068 24ZM42.5 37.214H31.004M31.004 37.214C31.004 38.3706 30.5435 39.4809 29.7257 40.2987C28.9078 41.1166 27.7986 41.576 26.642 41.576C25.4857 41.576 24.3767 41.1147 23.559 40.297C22.7414 39.4794 22.282 38.3704 22.282 37.214M31.004 37.214C31.004 36.0574 30.5435 34.9492 29.7257 34.1313C28.9078 33.3135 27.7986 32.854 26.642 32.854C25.4857 32.854 24.3767 33.3134 23.559 34.131C22.7414 34.9487 22.282 36.0577 22.282 37.214M22.282 37.214H5.5M42.5 10.786H36.29M27.568 10.786H5.5M27.568 10.786C27.568 9.62968 28.0274 8.5207 28.845 7.70304C29.6627 6.88538 30.7717 6.42603 31.928 6.42603C32.5006 6.42603 33.0675 6.5388 33.5965 6.75791C34.1255 6.97702 34.6061 7.29818 35.011 7.70304C35.4158 8.1079 35.737 8.58855 35.9561 9.11753C36.1752 9.64651 36.288 10.2135 36.288 10.786C36.288 11.3586 36.1752 11.9255 35.9561 12.4545C35.737 12.9835 35.4158 13.4641 35.011 13.869C34.6061 14.2739 34.1255 14.595 33.5965 14.8141C33.0675 15.0333 32.5006 15.146 31.928 15.146C30.7717 15.146 29.6627 14.6867 28.845 13.869C28.0274 13.0514 27.568 11.9424 27.568 10.786Z" stroke="black" stroke-width="1.5" stroke-miterlimit="10" stroke-linecap="round"/>
</svg>
