<svg width="530" height="203" viewBox="0 0 500 203" fill="none" xmlns="http://www.w3.org/2000/svg">
<path d="M121.984 127.942L75.4936 141.424M136.193 116.127L141.477 111.252M149.397 103.946L176.736 78.71M148.654 100.76C148.654 100.76 150.943 91.1308 141.844 91.1308C132.744 91.1308 132.425 94.8951 132.425 97.683C132.425 100.471 127.866 101.797 127.866 101.797C127.544 102.946 130.243 106.313 132.478 104.848C135.621 105.983 134.929 110.895 137.726 111.649L142.966 110.562C142.966 110.562 144.338 112.336 143.279 115.491C142.22 118.646 140.506 120.441 140.802 122.441C141.097 124.441 137.776 121.047 137.726 119.569C137.675 118.087 136.314 115.43 134.162 115.784C132.011 116.138 132.109 121.131 132.683 122.276C133.258 123.42 139.41 127.858 139.41 127.858L138.401 133.084L130.929 128.158C130.929 128.158 128.25 123.232 126.784 123.367C125.318 123.501 127.16 124.545 125.52 125.289C123.873 126.03 120.283 125.306 121.338 127.168C122.394 129.033 125.16 133.077 126.881 132.851C128.603 132.626 130.125 135.185 136.559 138.936C136.559 138.936 135.248 144.323 135.003 145.592C134.761 146.861 134.062 152.202 132.751 154.111C131.44 156.02 122.071 167.905 121.873 170.262C121.678 172.616 121.332 174.562 121.332 174.562C121.332 174.562 116.232 183.003 113.839 188.164C111.449 193.333 111.082 195.518 111.082 195.518C111.082 195.518 101.216 198.178 100.48 200.289C99.7404 202.397 99.9555 202.239 122.38 202.239L123.362 196.34L134.989 176.542C134.989 176.542 136.253 185.872 138.63 187.525C141.007 189.178 150.597 194.656 148.479 197.026C146.362 199.393 142.449 198.841 143.168 201.845L168.218 202.239C168.218 202.239 164.924 191.952 159.757 189.821C154.591 187.686 148.563 178.828 148.563 178.828C148.563 178.828 148.086 171.127 149.572 167.195C151.051 163.262 156.419 158.663 157.142 157.026C157.689 155.779 158.223 154.527 158.745 153.269L161.196 153.882C163.307 146.572 162.789 135.437 161.959 127.269C161.959 127.269 165.435 126.141 165.368 124.306C165.3 122.471 161.872 118.484 161.872 118.484V113.542C161.872 107.626 154.651 105.757 151.807 106.158C148.963 106.558 148.654 100.76 148.654 100.76Z" stroke="#0F4C81" stroke-linecap="round" stroke-linejoin="round"/>
<path d="M179.863 80.0028C177.362 80.0028 175.335 77.9723 175.335 75.4675C175.335 72.9627 177.362 70.9321 179.863 70.9321C182.363 70.9321 184.391 72.9627 184.391 75.4675C184.391 77.9723 182.363 80.0028 179.863 80.0028Z" stroke="#0F4C81" stroke-linecap="round" stroke-linejoin="round"/>
<path d="M71.0902 147.471C68.5894 147.471 66.5622 145.44 66.5622 142.935C66.5622 140.43 68.5894 138.4 71.0902 138.4C73.5909 138.4 75.6182 140.43 75.6182 142.935C75.6182 145.44 73.5909 147.471 71.0902 147.471Z" stroke="#0F4C81" stroke-linecap="round" stroke-linejoin="round"/>
<path d="M238.016 127.942L284.506 141.424M223.807 116.127L218.523 111.252M210.603 103.946L183.264 78.71M211.346 100.76C211.346 100.76 209.057 91.1308 218.156 91.1308C227.256 91.1308 227.575 94.8951 227.575 97.683C227.575 100.471 232.134 101.797 232.134 101.797C232.456 102.946 229.757 106.313 227.522 104.848C224.379 105.983 225.071 110.895 222.274 111.649L217.034 110.562C217.034 110.562 215.662 112.336 216.721 115.491C217.78 118.646 219.494 120.441 219.198 122.441C218.903 124.441 222.224 121.047 222.274 119.569C222.325 118.087 223.686 115.43 225.838 115.784C227.989 116.138 227.891 121.131 227.317 122.276C226.742 123.42 220.59 127.858 220.59 127.858L221.599 133.084L229.071 128.158C229.071 128.158 231.75 123.232 233.216 123.367C234.682 123.501 232.84 124.545 234.48 125.289C236.127 126.03 239.717 125.306 238.662 127.168C237.606 129.033 234.84 133.077 233.119 132.851C231.397 132.626 229.875 135.185 223.441 138.936C223.441 138.936 224.752 144.323 224.997 145.592C225.239 146.861 225.938 152.202 227.249 154.111C228.56 156.02 237.929 167.905 238.127 170.262C238.322 172.616 238.668 174.562 238.668 174.562C238.668 174.562 243.768 183.003 246.161 188.164C248.551 193.333 248.918 195.518 248.918 195.518C248.918 195.518 258.784 198.178 259.52 200.289C260.26 202.397 260.044 202.239 237.62 202.239L236.638 196.34L225.011 176.542C225.011 176.542 223.747 185.872 221.37 187.525C218.993 189.178 209.403 194.656 211.521 197.026C213.638 199.393 217.551 198.841 216.832 201.845L191.782 202.239C191.782 202.239 195.076 191.952 200.243 189.821C205.409 187.686 211.437 178.828 211.437 178.828C211.437 178.828 211.914 171.127 210.428 167.195C208.949 163.262 203.581 158.663 202.858 157.026C202.311 155.779 201.777 154.527 201.255 153.269L198.804 153.882C196.693 146.572 197.211 135.437 198.041 127.269C198.041 127.269 194.565 126.141 194.632 124.306C194.7 122.471 198.128 118.484 198.128 118.484V113.542C198.128 107.626 205.349 105.757 208.193 106.158C211.037 106.558 211.346 100.76 211.346 100.76Z" stroke="#0F4C81" stroke-linecap="round" stroke-linejoin="round"/>
<path d="M180.137 80.0028C182.638 80.0028 184.665 77.9723 184.665 75.4675C184.665 72.9627 182.638 70.9321 180.137 70.9321C177.637 70.9321 175.609 72.9627 175.609 75.4675C175.609 77.9723 177.637 80.0028 180.137 80.0028Z" stroke="#0F4C81" stroke-linecap="round" stroke-linejoin="round"/>
<path d="M288.91 147.471C291.411 147.471 293.438 145.44 293.438 142.935C293.438 140.43 291.411 138.4 288.91 138.4C286.409 138.4 284.382 140.43 284.382 142.935C284.382 145.44 286.409 147.471 288.91 147.471Z" stroke="#0F4C81" stroke-linecap="round" stroke-linejoin="round"/>
<path d="M339.984 127.942L293.494 141.424M354.193 116.127L359.477 111.252M367.397 103.946L394.736 78.71M366.654 100.76C366.654 100.76 368.943 91.1308 359.844 91.1308C350.744 91.1308 350.425 94.8951 350.425 97.683C350.425 100.471 345.866 101.797 345.866 101.797C345.544 102.946 348.243 106.313 350.478 104.848C353.621 105.983 352.929 110.895 355.726 111.649L360.966 110.562C360.966 110.562 362.338 112.336 361.279 115.491C360.22 118.646 358.506 120.441 358.802 122.441C359.097 124.441 355.776 121.047 355.726 119.569C355.675 118.087 354.314 115.43 352.162 115.784C350.011 116.138 350.109 121.131 350.683 122.276C351.258 123.42 357.41 127.858 357.41 127.858L356.401 133.084L348.929 128.158C348.929 128.158 346.25 123.232 344.784 123.367C343.318 123.501 345.16 124.545 343.52 125.289C341.873 126.03 338.283 125.306 339.338 127.168C340.394 129.033 343.16 133.077 344.881 132.851C346.603 132.626 348.125 135.185 354.559 138.936C354.559 138.936 353.248 144.323 353.003 145.592C352.761 146.861 352.062 152.202 350.751 154.111C349.44 156.02 340.071 167.905 339.873 170.262C339.678 172.616 339.332 174.562 339.332 174.562C339.332 174.562 334.232 183.003 331.839 188.164C329.449 193.333 329.082 195.518 329.082 195.518C329.082 195.518 319.216 198.178 318.48 200.289C317.74 202.397 317.956 202.239 340.38 202.239L341.362 196.34L352.989 176.542C352.989 176.542 354.253 185.872 356.63 187.525C359.007 189.178 368.597 194.656 366.479 197.026C364.362 199.393 360.449 198.841 361.168 201.845L386.218 202.239C386.218 202.239 382.924 191.952 377.757 189.821C372.591 187.686 366.563 178.828 366.563 178.828C366.563 178.828 366.086 171.127 367.572 167.195C369.051 163.262 374.419 158.663 375.142 157.026C375.689 155.779 376.223 154.527 376.745 153.269L379.196 153.882C381.307 146.572 380.789 135.437 379.959 127.269C379.959 127.269 383.435 126.141 383.368 124.306C383.3 122.471 379.872 118.484 379.872 118.484V113.542C379.872 107.626 372.651 105.757 369.807 106.158C366.963 106.558 366.654 100.76 366.654 100.76Z" stroke="#0F4C81" stroke-linecap="round" stroke-linejoin="round"/>
<path d="M289.09 147.471C286.589 147.471 284.562 145.44 284.562 142.935C284.562 140.43 286.589 138.4 289.09 138.4C291.591 138.4 293.618 140.43 293.618 142.935C293.618 145.44 291.591 147.471 289.09 147.471Z" stroke="#0F4C81" stroke-linecap="round" stroke-linejoin="round"/>
<path d="M20.0163 127.942L66.5064 141.424M5.80714 116.127L0.522809 111.252M-7.39696 103.946L-34.7363 78.71M-6.65407 100.76C-6.65407 100.76 -8.94327 91.1308 0.156404 91.1308C9.25608 91.1308 9.57542 94.8951 9.57542 97.683C9.57542 100.471 14.1337 101.797 14.1337 101.797C14.4564 102.946 11.7571 106.313 9.52164 104.848C6.3786 105.983 7.07108 110.895 4.27429 111.649L-0.966348 110.562C-0.966348 110.562 -2.33786 112.336 -1.27897 115.491C-0.220088 118.646 1.49429 120.441 1.19848 122.441C0.902663 124.441 4.22386 121.047 4.27429 119.569C4.32471 118.087 5.68613 115.43 7.83751 115.784C9.98889 116.138 9.89141 121.131 9.31659 122.276C8.74177 123.42 2.59015 127.858 2.59015 127.858L3.59862 133.084L11.0713 128.158C11.0713 128.158 13.7504 123.232 15.2161 123.367C16.6817 123.501 14.8396 124.545 16.48 125.289C18.1272 126.03 21.7173 125.306 20.6618 127.168C19.6062 129.033 16.8397 133.077 15.1186 132.851C13.3975 132.626 11.8747 135.185 5.44073 138.936C5.44073 138.936 6.75173 144.323 6.99713 145.592C7.23916 146.861 7.93836 152.202 9.24936 154.111C10.5604 156.02 19.9289 167.905 20.1273 170.262C20.3222 172.616 20.6685 174.562 20.6685 174.562C20.6685 174.562 25.7679 183.003 28.1613 188.164C30.5514 193.333 30.9178 195.518 30.9178 195.518C30.9178 195.518 40.7839 198.178 41.5201 200.289C42.2596 202.397 42.0445 202.239 19.6197 202.239L18.6381 196.34L7.01057 176.542C7.01057 176.542 5.74663 185.872 3.37003 187.525C0.993424 189.178 -8.59704 194.656 -6.47927 197.026C-4.3615 199.393 -0.448676 198.841 -1.16804 201.845L-26.2182 202.239C-26.2182 202.239 -22.9239 191.952 -17.7572 189.821C-12.5905 187.686 -6.56331 178.828 -6.56331 178.828C-6.56331 178.828 -6.08597 171.127 -7.57176 167.195C-9.05084 163.262 -14.4192 158.663 -15.1419 157.026C-15.6887 155.779 -16.2232 154.527 -16.7454 153.269L-19.196 153.882C-21.307 146.572 -20.7893 135.437 -19.959 127.269C-19.959 127.269 -23.4348 126.141 -23.3676 124.306C-23.3004 122.471 -19.8716 118.484 -19.8716 118.484V113.542C-19.8716 107.626 -12.651 105.757 -9.80719 106.158C-6.96333 106.558 -6.65407 100.76 -6.65407 100.76Z" stroke="#0F4C81" stroke-linecap="round" stroke-linejoin="round"/>
<path d="M70.9098 147.471C73.4106 147.471 75.4378 145.44 75.4378 142.935C75.4378 140.43 73.4106 138.4 70.9098 138.4C68.4091 138.4 66.3818 140.43 66.3818 142.935C66.3818 145.44 68.4091 147.471 70.9098 147.471Z" stroke="#0F4C81" stroke-linecap="round" stroke-linejoin="round"/>
</svg>
