<svg width="358" height="639" viewBox="0 0 358 639" fill="none" xmlns="http://www.w3.org/2000/svg">
<mask id="mask0_155_2881" style="mask-type:luminance" maskUnits="userSpaceOnUse" x="0" y="0" width="358" height="639">
<path d="M358 0H0V639H358V0Z" fill="white"/>
</mask>
<g mask="url(#mask0_155_2881)">
<mask id="mask1_155_2881" style="mask-type:luminance" maskUnits="userSpaceOnUse" x="0" y="0" width="358" height="639">
<path d="M0 0H358V639H0V0Z" fill="white"/>
</mask>
<g mask="url(#mask1_155_2881)">
<g opacity="0.175444">
<path d="M172.271 460.368C172.271 457.96 176.792 457.96 176.792 460.368C176.792 462.782 172.271 462.776 172.271 460.368Z" fill="#7017BC"/>
</g>
<g opacity="0.175444">
<path d="M249.506 240.246C249.506 237.832 254.026 237.838 254.026 240.246C254.026 242.659 249.506 242.659 249.506 240.246Z" fill="#B863FF"/>
</g>
<g opacity="0.144896">
<path d="M257.086 79.709C257.086 77.2954 261.607 77.3009 261.607 79.709C261.607 82.1225 257.086 82.1225 257.086 79.709Z" fill="url(#paint0_radial_155_2881)"/>
</g>
<g opacity="0.405092">
<path d="M62.1177 92.2998C62.1177 89.8862 66.6378 89.8918 66.6378 92.2998C66.6378 94.7134 62.1177 94.7134 62.1177 92.2998Z" fill="#B863FF"/>
</g>
<g opacity="0.405092">
<path d="M60.8516 586.279C60.8516 583.871 65.3717 583.871 65.3717 586.279C65.3717 588.693 60.8516 588.687 60.8516 586.279Z" fill="#7017BC"/>
</g>
<g opacity="0.426673">
<path d="M91.2227 391.339C91.2227 388.926 95.7428 388.931 95.7428 391.339C95.7428 393.753 91.2227 393.753 91.2227 391.339Z" fill="url(#paint1_radial_155_2881)"/>
</g>
<g opacity="0.175444">
<path d="M2.60938 244.22C2.60938 241.812 7.12948 241.812 7.12948 244.22C7.12948 246.634 2.60938 246.628 2.60938 244.22Z" fill="#7017BC"/>
</g>
<g opacity="0.175444">
<path d="M145.683 78.6592C145.683 76.2456 150.203 76.2511 150.203 78.6592C150.203 81.0727 145.683 81.0727 145.683 78.6592Z" fill="#B863FF"/>
</g>
<g opacity="0.144896">
<path d="M54.5044 518.3C54.5044 515.887 59.0245 515.892 59.0245 518.3C59.0245 520.714 54.5044 520.714 54.5044 518.3Z" fill="url(#paint2_radial_155_2881)"/>
</g>
<g opacity="0.385121">
<path d="M141.884 186.733C141.884 184.319 146.404 184.325 146.404 186.733C146.404 189.146 141.884 189.146 141.884 186.733Z" fill="#B863FF"/>
</g>
<g opacity="0.385121">
<path d="M82.376 34.3681C82.376 31.96 86.8961 31.96 86.8961 34.3681C86.8961 36.7816 82.376 36.7761 82.376 34.3681Z" fill="#7017BC"/>
</g>
<g opacity="0.421633">
<path d="M288.74 368.256C288.74 365.842 293.26 365.848 293.26 368.256C293.26 370.669 288.74 370.669 288.74 368.256Z" fill="url(#paint3_radial_155_2881)"/>
</g>
<g opacity="0.135639">
<path d="M212.788 562.146C212.788 559.738 217.308 559.738 217.308 562.146C217.308 564.56 212.788 564.554 212.788 562.146Z" fill="#7017BC"/>
</g>
<g opacity="0.135639">
<path d="M86.1743 281.167C86.1743 278.753 90.6944 278.758 90.6944 281.167C90.6944 283.58 86.1743 283.58 86.1743 281.167Z" fill="#B863FF"/>
</g>
<g opacity="0.100963">
<path d="M210.239 131.123C210.239 128.709 214.759 128.715 214.759 131.123C214.759 133.537 210.239 133.537 210.239 131.123Z" fill="url(#paint4_radial_155_2881)"/>
</g>
<g opacity="0.405092">
<path d="M319.144 225.556C319.144 223.142 323.664 223.148 323.664 225.556C323.664 227.969 319.144 227.969 319.144 225.556Z" fill="#B863FF"/>
</g>
<g opacity="0.405092">
<path d="M246.974 25.974C246.974 23.566 251.494 23.566 251.494 25.974C251.494 28.3876 246.974 28.3821 246.974 25.974Z" fill="#7017BC"/>
</g>
<g opacity="0.426673">
<path d="M283.675 558.172C283.675 555.758 288.195 555.764 288.195 558.172C288.195 560.585 283.675 560.585 283.675 558.172Z" fill="url(#paint5_radial_155_2881)"/>
</g>
</g>
<mask id="mask2_155_2881" style="mask-type:luminance" maskUnits="userSpaceOnUse" x="136" y="488" width="20" height="17">
<path d="M136.938 488.311H155.93V504.049H136.938V488.311Z" fill="white"/>
</mask>
<g mask="url(#mask2_155_2881)">
<g opacity="0.308663">
<path d="M144.852 496.18C144.852 494.496 148.016 494.496 148.016 496.18C148.016 497.864 144.852 497.864 144.852 496.18Z" fill="#6563FF"/>
</g>
</g>
<mask id="mask3_155_2881" style="mask-type:luminance" maskUnits="userSpaceOnUse" x="132" y="361" width="20" height="17">
<path d="M132.234 361.326H151.226V377.065H132.234V361.326Z" fill="white"/>
</mask>
<g mask="url(#mask3_155_2881)">
<g opacity="0.467474">
<path d="M140.148 369.195C140.148 367.511 143.313 367.511 143.313 369.195C143.313 370.879 140.148 370.879 140.148 369.195Z" fill="#6563FF"/>
</g>
</g>
<mask id="mask4_155_2881" style="mask-type:luminance" maskUnits="userSpaceOnUse" x="166" y="136" width="20" height="17">
<path d="M166.182 136.961H185.174V152.7H166.182V136.961Z" fill="white"/>
</mask>
<g mask="url(#mask4_155_2881)">
<g opacity="0.225369">
<path d="M174.096 144.831C174.096 143.147 177.26 143.147 177.26 144.831C177.26 146.515 174.096 146.515 174.096 144.831Z" fill="#6563FF"/>
</g>
</g>
<mask id="mask5_155_2881" style="mask-type:luminance" maskUnits="userSpaceOnUse" x="255" y="62" width="20" height="17">
<path d="M255.83 62.7119H274.822V78.4508H255.83V62.7119Z" fill="white"/>
</mask>
<g mask="url(#mask5_155_2881)">
<g opacity="0.6">
<path d="M263.744 70.5814C263.744 68.8973 266.908 68.8973 266.908 70.5814C266.908 72.2655 263.744 72.2655 263.744 70.5814Z" fill="#6563FF"/>
</g>
</g>
<mask id="mask6_155_2881" style="mask-type:luminance" maskUnits="userSpaceOnUse" x="39" y="374" width="26" height="22">
<path d="M39.3965 374.622H64.7192V395.607H39.3965V374.622Z" fill="white"/>
</mask>
<g mask="url(#mask6_155_2881)">
<g opacity="0.0536966">
<path d="M46.7017 384.367C46.7017 379.781 55.2937 379.786 55.2937 384.367C55.2937 388.959 46.7017 388.953 46.7017 384.367Z" fill="#642CE2"/>
</g>
</g>
<mask id="mask7_155_2881" style="mask-type:luminance" maskUnits="userSpaceOnUse" x="148" y="329" width="27" height="22">
<path d="M148.91 329.036H174.232V350.021H148.91V329.036Z" fill="white"/>
</mask>
<g mask="url(#mask7_155_2881)">
<g opacity="0.252301">
<path d="M156.215 338.78C156.215 334.194 164.807 334.2 164.807 338.78C164.807 343.372 156.215 343.367 156.215 338.78Z" fill="#642CE2"/>
</g>
</g>
<mask id="mask8_155_2881" style="mask-type:luminance" maskUnits="userSpaceOnUse" x="178" y="382" width="26" height="22">
<path d="M178.209 382.921H203.532V403.906H178.209V382.921Z" fill="white"/>
</mask>
<g mask="url(#mask8_155_2881)">
<g opacity="0.386674">
<path d="M185.514 392.666C185.514 388.079 194.106 388.085 194.106 392.666C194.106 397.258 185.514 397.252 185.514 392.666Z" fill="#642CE2"/>
</g>
</g>
<mask id="mask9_155_2881" style="mask-type:luminance" maskUnits="userSpaceOnUse" x="276" y="183" width="27" height="22">
<path d="M276.718 183.889H302.04V204.874H276.718V183.889Z" fill="white"/>
</mask>
<g mask="url(#mask9_155_2881)">
<g opacity="0.0536966">
<path d="M284.023 193.634C284.023 189.048 292.615 189.053 292.615 193.634C292.615 198.226 284.023 198.22 284.023 193.634Z" fill="#642CE2"/>
</g>
</g>
<mask id="mask10_155_2881" style="mask-type:luminance" maskUnits="userSpaceOnUse" x="68" y="67" width="26" height="22">
<path d="M68.1426 67.8838H93.4653V88.869H68.1426V67.8838Z" fill="white"/>
</mask>
<g mask="url(#mask10_155_2881)">
<g opacity="0.220854">
<path d="M75.4478 77.6286C75.4478 73.0423 84.0398 73.0478 84.0398 77.6286C84.0398 82.2204 75.4478 82.2149 75.4478 77.6286Z" fill="#642CE2"/>
</g>
</g>
<mask id="mask11_155_2881" style="mask-type:luminance" maskUnits="userSpaceOnUse" x="49" y="60" width="27" height="22">
<path d="M49.916 60.3516H75.2387V81.3368H49.916V60.3516Z" fill="white"/>
</mask>
<g mask="url(#mask11_155_2881)">
<g opacity="0.01">
<path d="M57.2212 70.0964C57.2212 65.51 65.8132 65.5156 65.8132 70.0964C65.8132 74.6882 57.2212 74.6827 57.2212 70.0964Z" fill="#642CE2"/>
</g>
</g>
<mask id="mask12_155_2881" style="mask-type:luminance" maskUnits="userSpaceOnUse" x="223" y="158" width="33" height="28">
<path d="M223.482 158.798H255.136V185.029H223.482V158.798Z" fill="white"/>
</mask>
<g mask="url(#mask12_155_2881)">
<g opacity="0.519674">
<path d="M234.38 171.391C234.38 166.8 242.972 166.811 242.972 171.391C242.972 175.961 234.38 175.983 234.38 171.391Z" fill="#6563FF"/>
</g>
</g>
<mask id="mask13_155_2881" style="mask-type:luminance" maskUnits="userSpaceOnUse" x="-8" y="324" width="33" height="27">
<path d="M-7.17822 324.55H24.4752V350.782H-7.17822V324.55Z" fill="white"/>
</mask>
<g mask="url(#mask13_155_2881)">
<g opacity="0.681605">
<path d="M3.71924 337.144C3.71924 332.552 12.3112 332.563 12.3112 337.144C12.3112 341.714 3.71924 341.736 3.71924 337.144Z" fill="#6563FF"/>
</g>
</g>
<mask id="mask14_155_2881" style="mask-type:luminance" maskUnits="userSpaceOnUse" x="89" y="423" width="33" height="28">
<path d="M89.5347 423.824H121.188V450.055H89.5347V423.824Z" fill="white"/>
</mask>
<g mask="url(#mask14_155_2881)">
<g opacity="0.183893">
<path d="M100.432 436.417C100.432 431.825 109.024 431.836 109.024 436.417C109.024 440.987 100.432 441.009 100.432 436.417Z" fill="#6563FF"/>
</g>
</g>
<mask id="mask15_155_2881" style="mask-type:luminance" maskUnits="userSpaceOnUse" x="232" y="508" width="33" height="28">
<path d="M232.567 508.903H264.221V535.135H232.567V508.903Z" fill="white"/>
</mask>
<g mask="url(#mask15_155_2881)">
<g opacity="0.312301">
<path d="M243.465 521.497C243.465 516.905 252.057 516.916 252.057 521.497C252.057 526.067 243.465 526.089 243.465 521.497Z" fill="#6563FF"/>
</g>
</g>
<mask id="mask16_155_2881" style="mask-type:luminance" maskUnits="userSpaceOnUse" x="44" y="503" width="48" height="41">
<path d="M44.354 503.854H91.8341V543.201H44.354V503.854Z" fill="white"/>
</mask>
<g mask="url(#mask16_155_2881)">
<mask id="mask17_155_2881" style="mask-type:luminance" maskUnits="userSpaceOnUse" x="56" y="513" width="24" height="20">
<path d="M67.9853 513.699C61.7414 513.699 56.6797 517.896 56.6797 523.073C56.6797 528.25 61.7414 532.447 67.9853 532.447C74.2293 532.447 79.291 528.25 79.291 523.073C79.291 517.896 74.2293 513.699 67.9853 513.699Z" fill="white"/>
</mask>
<g mask="url(#mask17_155_2881)">
<g opacity="0.203364">
<path d="M79.2911 523.076C79.2911 528.324 74.0797 532.215 67.9814 532.439C61.8764 532.669 56.6792 528.004 56.6792 523.076C56.6792 517.827 61.8764 513.931 67.9814 513.707C74.0864 513.483 79.2911 518.175 79.2911 523.076Z" fill="#642CE2"/>
</g>
</g>
</g>
<mask id="mask18_155_2881" style="mask-type:luminance" maskUnits="userSpaceOnUse" x="78" y="173" width="48" height="41">
<path d="M78.3071 173.823H125.787V213.171H78.3071V173.823Z" fill="white"/>
</mask>
<g mask="url(#mask18_155_2881)">
<mask id="mask19_155_2881" style="mask-type:luminance" maskUnits="userSpaceOnUse" x="91" y="184" width="22" height="18">
<path d="M101.939 184.616C96.3262 184.616 91.7764 188.389 91.7764 193.043C91.7764 197.696 96.3262 201.469 101.939 201.469C107.551 201.469 112.101 197.696 112.101 193.043C112.101 188.389 107.551 184.616 101.939 184.616Z" fill="white"/>
</mask>
<g mask="url(#mask19_155_2881)">
<g opacity="0.199553">
<path d="M112.101 193.045C112.101 197.763 107.417 201.26 101.935 201.462C96.4475 201.668 91.7759 197.475 91.7759 193.045C91.7759 188.327 96.4475 184.825 101.935 184.624C107.423 184.422 112.101 188.64 112.101 193.045Z" fill="#642CE2"/>
</g>
</g>
</g>
<mask id="mask20_155_2881" style="mask-type:luminance" maskUnits="userSpaceOnUse" x="-6" y="504" width="49" height="40">
<path d="M-5.21143 504.533H42.2687V543.88H-5.21143V504.533Z" fill="white"/>
</mask>
<g mask="url(#mask20_155_2881)">
<mask id="mask21_155_2881" style="mask-type:luminance" maskUnits="userSpaceOnUse" x="7" y="514" width="23" height="20">
<path d="M18.4199 514.378C12.176 514.378 7.11426 518.575 7.11426 523.753C7.11426 528.93 12.176 533.127 18.4199 533.127C24.6639 533.127 29.7255 528.93 29.7255 523.753C29.7255 518.575 24.6639 514.378 18.4199 514.378Z" fill="white"/>
</mask>
<g mask="url(#mask21_155_2881)">
<g opacity="0.01">
<path d="M29.7257 523.755C29.7257 529.004 24.5143 532.895 18.4159 533.119C12.3109 533.349 7.11377 528.684 7.11377 523.755C7.11377 518.506 12.3109 514.611 18.4159 514.387C24.5209 514.162 29.7257 518.855 29.7257 523.755Z" fill="#642CE2"/>
</g>
</g>
</g>
<mask id="mask22_155_2881" style="mask-type:luminance" maskUnits="userSpaceOnUse" x="228" y="182" width="49" height="40">
<path d="M228.696 182.309H276.176V221.656H228.696V182.309Z" fill="white"/>
</mask>
<g mask="url(#mask22_155_2881)">
<mask id="mask23_155_2881" style="mask-type:luminance" maskUnits="userSpaceOnUse" x="246" y="196" width="13" height="11">
<path d="M252.327 196.371C248.892 196.371 246.106 198.68 246.106 201.529C246.106 204.378 248.892 206.687 252.327 206.687C255.763 206.687 258.548 204.378 258.548 201.529C258.548 198.68 255.763 196.371 252.327 196.371Z" fill="white"/>
</mask>
<g mask="url(#mask23_155_2881)">
<g opacity="0.0600997">
<path d="M258.548 201.53C258.548 204.419 255.681 206.559 252.325 206.683C248.966 206.809 246.106 204.242 246.106 201.53C246.106 198.642 248.966 196.499 252.325 196.375C255.684 196.252 258.548 198.834 258.548 201.53Z" fill="#642CE2"/>
</g>
</g>
</g>
<mask id="mask24_155_2881" style="mask-type:luminance" maskUnits="userSpaceOnUse" x="58" y="131" width="48" height="40">
<path d="M58.373 131.301H105.853V170.648H58.373V131.301Z" fill="white"/>
</mask>
<g mask="url(#mask24_155_2881)">
<mask id="mask25_155_2881" style="mask-type:luminance" maskUnits="userSpaceOnUse" x="70" y="141" width="24" height="19">
<path d="M82.0044 141.146C75.7604 141.146 70.6987 145.343 70.6987 150.52C70.6987 155.698 75.7604 159.895 82.0044 159.895C88.2483 159.895 93.31 155.698 93.31 150.52C93.31 145.343 88.2483 141.146 82.0044 141.146Z" fill="white"/>
</mask>
<g mask="url(#mask25_155_2881)">
<g opacity="0.117592">
<path d="M93.3102 150.523C93.3102 155.772 88.0988 159.662 82.0004 159.887C75.8954 160.116 70.6982 155.451 70.6982 150.523C70.6982 145.274 75.8954 141.378 82.0004 141.154C88.1054 140.93 93.3102 145.622 93.3102 150.523Z" fill="#642CE2"/>
</g>
</g>
</g>
<mask id="mask26_155_2881" style="mask-type:luminance" maskUnits="userSpaceOnUse" x="197" y="452" width="48" height="40">
<path d="M197.395 452.173H244.875V491.52H197.395V452.173Z" fill="white"/>
</mask>
<g mask="url(#mask26_155_2881)">
<mask id="mask27_155_2881" style="mask-type:luminance" maskUnits="userSpaceOnUse" x="209" y="462" width="24" height="19">
<path d="M221.026 462.018C214.782 462.018 209.721 466.215 209.721 471.392C209.721 476.57 214.782 480.767 221.026 480.767C227.27 480.767 232.332 476.57 232.332 471.392C232.332 466.215 227.27 462.018 221.026 462.018Z" fill="white"/>
</mask>
<g mask="url(#mask27_155_2881)">
<g opacity="0.01">
<path d="M232.332 471.395C232.332 476.644 227.121 480.534 221.022 480.759C214.917 480.989 209.72 476.324 209.72 471.395C209.72 466.146 214.917 462.251 221.022 462.026C227.127 461.802 232.332 466.495 232.332 471.395Z" fill="#642CE2"/>
</g>
</g>
</g>
</g>
<defs>
<radialGradient id="paint0_radial_155_2881" cx="0" cy="0" r="1" gradientUnits="userSpaceOnUse" gradientTransform="translate(259.346 79.7098) scale(2.26005 1.87293)">
<stop stop-color="#B963FF"/>
<stop offset="0.5" stop-color="#8F63FF"/>
<stop offset="1" stop-color="#6563FF"/>
</radialGradient>
<radialGradient id="paint1_radial_155_2881" cx="0" cy="0" r="1" gradientUnits="userSpaceOnUse" gradientTransform="translate(93.4827 391.34) scale(2.26005 1.87293)">
<stop stop-color="#B963FF"/>
<stop offset="0.5" stop-color="#8F63FF"/>
<stop offset="1" stop-color="#6563FF"/>
</radialGradient>
<radialGradient id="paint2_radial_155_2881" cx="0" cy="0" r="1" gradientUnits="userSpaceOnUse" gradientTransform="translate(56.7644 518.301) scale(2.26005 1.87293)">
<stop stop-color="#B963FF"/>
<stop offset="0.5" stop-color="#8F63FF"/>
<stop offset="1" stop-color="#6563FF"/>
</radialGradient>
<radialGradient id="paint3_radial_155_2881" cx="0" cy="0" r="1" gradientUnits="userSpaceOnUse" gradientTransform="translate(291 368.257) scale(2.26005 1.87293)">
<stop stop-color="#B963FF"/>
<stop offset="0.5" stop-color="#8F63FF"/>
<stop offset="1" stop-color="#6563FF"/>
</radialGradient>
<radialGradient id="paint4_radial_155_2881" cx="0" cy="0" r="1" gradientUnits="userSpaceOnUse" gradientTransform="translate(212.499 131.124) scale(2.26005 1.87293)">
<stop stop-color="#B963FF"/>
<stop offset="0.5" stop-color="#8F63FF"/>
<stop offset="1" stop-color="#6563FF"/>
</radialGradient>
<radialGradient id="paint5_radial_155_2881" cx="0" cy="0" r="1" gradientUnits="userSpaceOnUse" gradientTransform="translate(285.935 558.173) scale(2.26005 1.87293)">
<stop stop-color="#B963FF"/>
<stop offset="0.5" stop-color="#8F63FF"/>
<stop offset="1" stop-color="#6563FF"/>
</radialGradient>
</defs>
</svg>
