<svg width="48" height="48" viewBox="0 0 48 48" fill="none" xmlns="http://www.w3.org/2000/svg">
<path fill-rule="evenodd" clip-rule="evenodd" d="M38.8672 3.66719C39.1673 3.36724 39.5742 3.19873 39.9984 3.19873C40.4227 3.19873 40.8296 3.36724 41.1296 3.66719L47.5296 10.0672C47.6786 10.2158 47.7968 10.3924 47.8775 10.5868C47.9582 10.7811 47.9997 10.9895 47.9997 11.2C47.9997 11.4104 47.9582 11.6188 47.8775 11.8132C47.7968 12.0076 47.6786 12.1842 47.5296 12.3328L34.9152 24.9472C34.6721 25.1912 34.3911 25.3943 34.0832 25.5488L21.5168 31.8304C21.2167 31.9802 20.8771 32.0319 20.546 31.9782C20.2149 31.9244 19.9091 31.768 19.6717 31.531C19.4344 31.294 19.2775 30.9884 19.2233 30.6574C19.1691 30.3264 19.2203 29.9867 19.3696 29.6864L25.6512 17.1168C25.8057 16.8089 26.0088 16.5279 26.2528 16.2848L38.8672 3.66719ZM40 7.06239L28.512 18.5504L25.1936 25.1936L26.0064 26.0064L32.6528 22.6848L44.1376 11.2L40 7.06239ZM32 6.39999L28.8 9.59999H15.68C14.3104 9.59999 13.376 9.59999 12.6592 9.66079C11.9552 9.71839 11.5968 9.82079 11.3472 9.94879C10.7451 10.2556 10.2556 10.7451 9.94882 11.3472C9.82082 11.5968 9.71842 11.9552 9.66082 12.6592C9.60002 13.376 9.60002 14.3104 9.60002 15.68V35.52C9.60002 36.8896 9.60002 37.824 9.66082 38.5408C9.71842 39.2448 9.82082 39.6032 9.94882 39.8528C10.2556 40.4549 10.7451 40.9444 11.3472 41.2512C11.5968 41.3792 11.9552 41.4816 12.6592 41.5392C13.3792 41.6 14.3104 41.6 15.68 41.6H35.52C36.8896 41.6 37.824 41.6 38.5408 41.5392C39.2448 41.4816 39.6032 41.3792 39.8528 41.2512C40.4549 40.9444 40.9444 40.4549 41.2512 39.8528C41.3792 39.6032 41.4816 39.2448 41.5392 38.5408C41.6 37.8208 41.6 36.8896 41.6 35.52V22.4L44.8 19.2V35.584C44.8 36.8736 44.8 37.936 44.7296 38.8032C44.656 39.7024 44.4992 40.5312 44.1024 41.3056C43.4888 42.5098 42.5098 43.4888 41.3056 44.1024C40.528 44.4992 39.7024 44.656 38.8032 44.7296C37.9392 44.8 36.8736 44.8 35.5872 44.8H15.616C14.3264 44.8 13.264 44.8 12.3968 44.7296C11.4976 44.656 10.6688 44.4992 9.89442 44.1024C8.69024 43.4888 7.7112 42.5098 7.09762 41.3056C6.70082 40.528 6.54402 39.7024 6.47042 38.8032C6.40002 37.9392 6.40002 36.8736 6.40002 35.584V15.616C6.40002 14.3264 6.40002 13.264 6.47042 12.3968C6.54402 11.4976 6.70082 10.6688 7.09762 9.89439C7.7112 8.69021 8.69024 7.71117 9.89442 7.09759C10.672 6.70079 11.4976 6.54399 12.3968 6.47039C13.2608 6.39999 14.3264 6.39999 15.616 6.39999H32Z" fill="black"/>
</svg>
