<svg width="25" height="24" viewBox="0 0 25 24" fill="none" xmlns="http://www.w3.org/2000/svg">
<g clip-path="url(#clip0_71_1704)">
<path d="M24.4609 14.6648L22.9258 13.3523C22.9984 12.907 23.0359 12.4523 23.0359 11.9976C23.0359 11.5429 22.9984 11.0883 22.9258 10.6429L24.4609 9.33044C24.5767 9.23132 24.6596 9.09929 24.6985 8.95193C24.7375 8.80456 24.7306 8.64883 24.6789 8.50544L24.6578 8.44451C24.2352 7.26331 23.6024 6.16833 22.7898 5.21248L22.7477 5.16326C22.6491 5.04736 22.5177 4.96405 22.3709 4.92431C22.224 4.88456 22.0686 4.89024 21.925 4.9406L20.0195 5.61794C19.3164 5.04138 18.5313 4.58669 17.6828 4.26794L17.3148 2.27576C17.2871 2.12586 17.2144 1.98795 17.1064 1.88036C16.9984 1.77277 16.8602 1.70059 16.7102 1.67341L16.6469 1.66169C15.4258 1.44138 14.1414 1.44138 12.9203 1.66169L12.857 1.67341C12.707 1.70059 12.5688 1.77277 12.4608 1.88036C12.3528 1.98795 12.2801 2.12586 12.2523 2.27576L11.882 4.27732C11.0404 4.59615 10.2566 5.0506 9.56172 5.62263L7.64219 4.9406C7.49867 4.88984 7.34311 4.88395 7.19617 4.92372C7.04922 4.9635 6.91786 5.04704 6.81954 5.16326L6.77735 5.21248C5.96581 6.16901 5.33306 7.26381 4.90938 8.44451L4.88829 8.50544C4.78282 8.79841 4.86954 9.12654 5.10625 9.33044L6.66016 10.657C6.5875 11.0976 6.55235 11.5476 6.55235 11.9953C6.55235 12.4453 6.5875 12.8953 6.66016 13.3336L5.10625 14.6601C4.99046 14.7593 4.90759 14.8913 4.86865 15.0387C4.82972 15.186 4.83657 15.3418 4.88829 15.4851L4.90938 15.5461C5.3336 16.7273 5.96172 17.8172 6.77735 18.7781L6.81954 18.8273C6.9181 18.9432 7.04947 19.0265 7.19632 19.0663C7.34318 19.106 7.49863 19.1003 7.64219 19.05L9.56172 18.3679C10.2602 18.9422 11.0406 19.3969 11.882 19.7133L12.2523 21.7148C12.2801 21.8647 12.3528 22.0026 12.4608 22.1102C12.5688 22.2178 12.707 22.29 12.857 22.3172L12.9203 22.3289C14.1526 22.5504 15.4146 22.5504 16.6469 22.3289L16.7102 22.3172C16.8602 22.29 16.9984 22.2178 17.1064 22.1102C17.2144 22.0026 17.2871 21.8647 17.3148 21.7148L17.6828 19.7226C18.5309 19.4047 19.3205 18.9485 20.0195 18.3726L21.925 19.05C22.0685 19.1007 22.2241 19.1066 22.371 19.0669C22.518 19.0271 22.6493 18.9435 22.7477 18.8273L22.7898 18.7781C23.6055 17.8148 24.2336 16.7273 24.6578 15.5461L24.6789 15.4851C24.7844 15.1969 24.6977 14.8687 24.4609 14.6648ZM21.2617 10.9195C21.3203 11.2734 21.3508 11.6367 21.3508 12C21.3508 12.3633 21.3203 12.7265 21.2617 13.0804L21.107 14.0203L22.8578 15.5179C22.5924 16.1294 22.2574 16.7082 21.8594 17.2429L19.6844 16.4719L18.9484 17.0765C18.3883 17.5359 17.7648 17.8969 17.0898 18.15L16.1969 18.4851L15.7773 20.7586C15.1154 20.8336 14.4471 20.8336 13.7852 20.7586L13.3656 18.4804L12.4797 18.1406C11.8117 17.8875 11.1906 17.5265 10.6352 17.0695L9.89922 16.4625L7.71016 17.2406C7.31172 16.7039 6.97891 16.125 6.71172 15.5156L8.48126 14.0039L8.32891 13.0664C8.27266 12.7172 8.24219 12.3562 8.24219 12C8.24219 11.6414 8.27032 11.2828 8.32891 10.9336L8.48126 9.99607L6.71172 8.48435C6.97657 7.87263 7.31172 7.29607 7.71016 6.75935L9.89922 7.53748L10.6352 6.93044C11.1906 6.47341 11.8117 6.11248 12.4797 5.85935L13.368 5.52419L13.7875 3.24607C14.4461 3.17107 15.1188 3.17107 15.7797 3.24607L16.1992 5.51951L17.0922 5.85466C17.7648 6.10779 18.3906 6.46873 18.9508 6.9281L19.6867 7.53279L21.8617 6.76169C22.2602 7.29841 22.593 7.87732 22.8602 8.48669L21.1094 9.98435L21.2617 10.9195ZM14.7859 7.6406C12.5078 7.6406 10.6609 9.48748 10.6609 11.7656C10.6609 14.0437 12.5078 15.8906 14.7859 15.8906C17.0641 15.8906 18.9109 14.0437 18.9109 11.7656C18.9109 9.48748 17.0641 7.6406 14.7859 7.6406ZM16.6422 13.6219C16.3987 13.866 16.1094 14.0596 15.7908 14.1916C15.4723 14.3235 15.1307 14.3911 14.7859 14.3906C14.0852 14.3906 13.4266 14.1164 12.9297 13.6219C12.6855 13.3784 12.4919 13.089 12.36 12.7705C12.228 12.4519 12.1604 12.1104 12.1609 11.7656C12.1609 11.0648 12.4352 10.4062 12.9297 9.90935C13.4266 9.41248 14.0852 9.1406 14.7859 9.1406C15.4867 9.1406 16.1453 9.41248 16.6422 9.90935C16.8864 10.1528 17.08 10.4422 17.2119 10.7607C17.3438 11.0793 17.4115 11.4208 17.4109 11.7656C17.4109 12.4664 17.1367 13.125 16.6422 13.6219Z" fill="black"/>
</g>
<defs>
<clipPath id="clip0_71_1704">
<rect width="24" height="24" fill="white" transform="translate(0.218384)"/>
</clipPath>
</defs>
</svg>
