<svg width="149" height="46" viewBox="0 0 149 46" fill="none" xmlns="http://www.w3.org/2000/svg">
<path d="M34.0643 33.896C33.6803 35.56 33.3283 36.6 33.0083 37.016C30.9603 36.376 28.6723 36.056 26.1443 36.056H26.0963C22.9283 42.52 18.6563 45.752 13.2803 45.752C11.7763 45.752 10.5123 45.304 9.48831 44.408C8.46431 43.544 7.95231 42.488 7.95231 41.24C7.95231 40.024 8.35231 38.92 9.15231 37.928C9.95231 36.936 11.0083 36.12 12.3203 35.48C14.6883 34.36 17.1683 33.576 19.7603 33.128L20.7203 29.576C17.7123 31.464 15.0403 32.408 12.7043 32.408C11.2323 32.408 10.0483 31.976 9.15231 31.112C8.28831 30.216 7.85631 28.824 7.85631 26.936C7.85631 25.432 8.04831 23.928 8.43231 22.424C8.81631 20.92 9.02431 20.088 9.05631 19.928C6.84831 19.256 4.89631 18.104 3.20031 16.472C1.53631 14.808 0.704313 12.712 0.704313 10.184C0.704313 7.656 1.84031 5.48 4.11231 3.656C6.38431 1.832 8.86431 0.919998 11.5523 0.919998C14.2403 0.919998 16.2243 1.608 17.5043 2.984C18.7843 4.328 19.4243 5.976 19.4243 7.928C19.4243 9.88 18.7363 12.904 17.3603 17C16.0163 21.064 15.3443 23.624 15.3443 24.68C15.3443 26.12 15.9843 26.84 17.2643 26.84C18.5443 26.84 20.0963 26.168 21.9203 24.824L22.9283 19.784C24.1123 13.864 24.9763 10.2 25.5203 8.792C26.0643 7.384 26.5923 6.184 27.1043 5.192C27.6483 4.168 28.2083 3.384 28.7843 2.84C30.1283 1.56 31.6483 0.919998 33.3443 0.919998C35.0403 0.919998 36.3363 1.352 37.2323 2.216C38.1283 3.08 38.5763 4.424 38.5763 6.248C38.5763 8.04 37.8403 10.376 36.3683 13.256C34.9283 16.136 32.9283 19.016 30.3683 21.896C29.6003 26.216 28.5923 29.976 27.3443 33.176H27.7763C30.3043 33.24 32.1763 33.432 33.3923 33.752L34.0643 33.896ZM9.63231 16.328C10.8483 12.584 11.4563 9.64 11.4563 7.496C11.4563 5.352 10.6403 4.28 9.00831 4.28C7.69631 4.28 6.48031 4.856 5.36031 6.008C4.24031 7.128 3.68031 8.504 3.68031 10.136C3.68031 11.768 4.28831 13.096 5.50431 14.12C6.72031 15.144 8.09631 15.88 9.63231 16.328ZM31.1843 16.808C32.4643 15.336 33.5363 13.512 34.4003 11.336C35.2643 9.128 35.6963 7.416 35.6963 6.2C35.6963 4.984 35.4723 4.376 35.0243 4.376C34.6403 4.376 34.2083 4.824 33.7283 5.72C32.8963 7.32 32.0163 11.032 31.0883 16.856L31.1843 16.808ZM11.5043 40.712C11.5043 41.48 12.0483 41.864 13.1363 41.864C14.2243 41.864 15.3123 41.368 16.4003 40.376C17.5203 39.416 18.4163 38.12 19.0883 36.488C17.2643 36.648 15.5363 37.16 13.9043 38.024C12.3043 38.888 11.5043 39.784 11.5043 40.712ZM43.9178 35.576C41.7098 35.576 39.9818 34.808 38.7338 33.272C37.4858 31.704 36.8618 29.528 36.8618 26.744C36.8618 23.192 37.8058 20.136 39.6938 17.576C41.6138 15.016 44.2538 13.736 47.6138 13.736L49.3418 13.832C49.8858 13.544 50.4938 13.4 51.1658 13.4C53.6938 13.4 54.9578 15.784 54.9578 20.552C56.2698 20.488 57.5978 20.312 58.9418 20.024L59.7098 19.832L59.9978 21.704C58.9418 22.152 57.5178 22.552 55.7258 22.904L54.7658 23.096C54.1578 26.456 52.9258 29.384 51.0698 31.88C49.2138 34.344 46.8298 35.576 43.9178 35.576ZM46.5098 31.448C47.8538 31.448 49.0538 30.584 50.1098 28.856C51.1978 27.128 51.9498 25.304 52.3658 23.384C48.9418 23.384 47.2298 22.104 47.2298 19.544C47.2298 18.52 47.4378 17.56 47.8538 16.664L48.0938 16.184C47.9658 16.12 47.8058 16.088 47.6138 16.088C47.4218 16.088 47.2778 16.12 47.1818 16.184C46.3818 16.696 45.6298 17.896 44.9258 19.784C44.2218 21.672 43.8698 23.832 43.8698 26.264C43.8698 29.72 44.7498 31.448 46.5098 31.448ZM60.5344 35.576C59.4144 35.576 58.5504 35.24 57.9424 34.568C57.3344 33.896 57.0304 33 57.0304 31.88C57.0304 30.76 57.4464 29.8 58.2784 29C59.1104 28.168 60.0864 27.752 61.2064 27.752C62.3584 27.752 63.2384 28.088 63.8464 28.76C64.4544 29.4 64.7584 30.28 64.7584 31.4C64.7584 32.488 64.3264 33.464 63.4624 34.328C62.6304 35.16 61.6544 35.576 60.5344 35.576ZM69.2224 3.128C69.2224 6.296 68.1824 11.272 66.1024 18.056C65.9424 18.6 65.6384 19.592 65.1904 21.032C64.7744 22.44 64.4544 23.528 64.2304 24.296C63.3664 24.584 62.5984 24.728 61.9264 24.728C61.2864 24.728 60.7104 24.696 60.1984 24.632C61.3504 17.688 61.9264 11.56 61.9264 6.248L61.6384 2.216C64.3584 1.352 66.7904 0.919998 68.9344 0.919998C69.1264 1.208 69.2224 1.944 69.2224 3.128ZM113.049 33.896C112.665 35.56 112.313 36.6 111.993 37.016C109.945 36.376 107.657 36.056 105.129 36.056H105.081C101.913 42.52 97.6407 45.752 92.2647 45.752C90.7607 45.752 89.4967 45.304 88.4727 44.408C87.4487 43.544 86.9367 42.488 86.9367 41.24C86.9367 40.024 87.3367 38.92 88.1367 37.928C88.9367 36.936 89.9927 36.12 91.3047 35.48C93.6727 34.36 96.1527 33.576 98.7447 33.128L99.7047 29.576C96.6967 31.464 94.0247 32.408 91.6887 32.408C90.2167 32.408 89.0327 31.976 88.1367 31.112C87.2727 30.216 86.8407 28.824 86.8407 26.936C86.8407 25.432 87.0327 23.928 87.4167 22.424C87.8007 20.92 88.0087 20.088 88.0407 19.928C85.8327 19.256 83.8807 18.104 82.1847 16.472C80.5207 14.808 79.6887 12.712 79.6887 10.184C79.6887 7.656 80.8247 5.48 83.0967 3.656C85.3687 1.832 87.8487 0.919998 90.5367 0.919998C93.2247 0.919998 95.2087 1.608 96.4887 2.984C97.7687 4.328 98.4087 5.976 98.4087 7.928C98.4087 9.88 97.7207 12.904 96.3447 17C95.0007 21.064 94.3287 23.624 94.3287 24.68C94.3287 26.12 94.9687 26.84 96.2487 26.84C97.5287 26.84 99.0807 26.168 100.905 24.824L101.913 19.784C103.097 13.864 103.961 10.2 104.505 8.792C105.049 7.384 105.577 6.184 106.089 5.192C106.633 4.168 107.193 3.384 107.769 2.84C109.113 1.56 110.633 0.919998 112.329 0.919998C114.025 0.919998 115.321 1.352 116.217 2.216C117.113 3.08 117.561 4.424 117.561 6.248C117.561 8.04 116.825 10.376 115.353 13.256C113.913 16.136 111.913 19.016 109.353 21.896C108.585 26.216 107.577 29.976 106.329 33.176H106.761C109.289 33.24 111.161 33.432 112.377 33.752L113.049 33.896ZM88.6167 16.328C89.8327 12.584 90.4407 9.64 90.4407 7.496C90.4407 5.352 89.6247 4.28 87.9927 4.28C86.6807 4.28 85.4647 4.856 84.3447 6.008C83.2247 7.128 82.6647 8.504 82.6647 10.136C82.6647 11.768 83.2727 13.096 84.4887 14.12C85.7047 15.144 87.0807 15.88 88.6167 16.328ZM110.169 16.808C111.449 15.336 112.521 13.512 113.385 11.336C114.249 9.128 114.681 7.416 114.681 6.2C114.681 4.984 114.457 4.376 114.009 4.376C113.625 4.376 113.193 4.824 112.713 5.72C111.881 7.32 111.001 11.032 110.073 16.856L110.169 16.808ZM90.4887 40.712C90.4887 41.48 91.0327 41.864 92.1207 41.864C93.2087 41.864 94.2967 41.368 95.3847 40.376C96.5047 39.416 97.4007 38.12 98.0727 36.488C96.2487 36.648 94.5207 37.16 92.8887 38.024C91.2887 38.888 90.4887 39.784 90.4887 40.712ZM122.902 35.576C120.694 35.576 118.966 34.808 117.718 33.272C116.47 31.704 115.846 29.528 115.846 26.744C115.846 23.192 116.79 20.136 118.678 17.576C120.598 15.016 123.238 13.736 126.598 13.736L128.326 13.832C128.87 13.544 129.478 13.4 130.15 13.4C132.678 13.4 133.942 15.784 133.942 20.552C135.254 20.488 136.582 20.312 137.926 20.024L138.694 19.832L138.982 21.704C137.926 22.152 136.502 22.552 134.71 22.904L133.75 23.096C133.142 26.456 131.91 29.384 130.054 31.88C128.198 34.344 125.814 35.576 122.902 35.576ZM125.494 31.448C126.838 31.448 128.038 30.584 129.094 28.856C130.182 27.128 130.934 25.304 131.35 23.384C127.926 23.384 126.214 22.104 126.214 19.544C126.214 18.52 126.422 17.56 126.838 16.664L127.078 16.184C126.95 16.12 126.79 16.088 126.598 16.088C126.406 16.088 126.262 16.12 126.166 16.184C125.366 16.696 124.614 17.896 123.91 19.784C123.206 21.672 122.854 23.832 122.854 26.264C122.854 29.72 123.734 31.448 125.494 31.448ZM139.519 35.576C138.399 35.576 137.535 35.24 136.927 34.568C136.319 33.896 136.015 33 136.015 31.88C136.015 30.76 136.431 29.8 137.263 29C138.095 28.168 139.071 27.752 140.191 27.752C141.343 27.752 142.223 28.088 142.831 28.76C143.439 29.4 143.743 30.28 143.743 31.4C143.743 32.488 143.311 33.464 142.447 34.328C141.615 35.16 140.639 35.576 139.519 35.576ZM148.207 3.128C148.207 6.296 147.167 11.272 145.087 18.056C144.927 18.6 144.623 19.592 144.175 21.032C143.759 22.44 143.439 23.528 143.215 24.296C142.351 24.584 141.583 24.728 140.911 24.728C140.271 24.728 139.695 24.696 139.183 24.632C140.335 17.688 140.911 11.56 140.911 6.248L140.623 2.216C143.343 1.352 145.775 0.919998 147.919 0.919998C148.111 1.208 148.207 1.944 148.207 3.128Z" fill="#0F4C81"/>
</svg>
