<svg width="300" height="300" viewBox="0 0 240 200" fill="none" xmlns="http://www.w3.org/2000/svg">
<path d="M0 32C0 14.3269 14.3269 0 32 0H208C225.673 0 240 14.3269 240 32V200H0V32Z" fill="#F2EFEF"/>
<path d="M10 42C10 24.3269 24.3269 10 42 10H198C215.673 10 230 24.3269 230 42V200H10V42Z" fill="white"/>
<path d="M103.372 52.535H104.932V66.245H103.372V52.535ZM100.417 57.92H104.107V59.21H100.417V57.92ZM98.9323 53.99H100.477C100.477 58.01 98.9923 61.43 94.3573 63.755L93.5173 62.525C97.4473 60.575 98.9323 57.86 98.9323 54.26V53.99ZM94.1323 53.99H99.7573V55.25H94.1323V53.99ZM107.796 61.775H108.726C110.376 61.775 111.861 61.73 113.646 61.43L113.766 62.72C111.936 63.035 110.421 63.08 108.726 63.08H107.796V61.775ZM107.766 53.96H112.926V58.985H109.326V62.255H107.796V57.725H111.411V55.22H107.766V53.96ZM117.576 52.535H119.076V66.245H117.576V52.535ZM115.476 57.845H117.951V59.12H115.476V57.845ZM114.486 52.805H115.941V65.57H114.486V52.805ZM131.345 52.535H132.845V66.245H131.345V52.535ZM129.275 57.98H131.75V59.255H129.275V57.98ZM128.255 52.805H129.725V65.57H128.255V52.805ZM121.79 54.125H123.365V62.045H121.79V54.125ZM121.79 61.43H122.69C124.07 61.43 125.615 61.355 127.37 61.01L127.535 62.375C125.705 62.72 124.13 62.78 122.69 62.78H121.79V61.43ZM141.139 54.47H145.264V55.745H141.139V54.47ZM141.139 57.5H145.264V58.775H141.139V57.5ZM137.104 61.325H146.344V66.245H144.769V62.585H137.104V61.325ZM144.769 52.535H146.344V60.635H144.769V52.535ZM138.739 53.27C140.764 53.27 142.309 54.665 142.309 56.615C142.309 58.58 140.764 59.96 138.739 59.96C136.699 59.96 135.169 58.58 135.169 56.615C135.169 54.665 136.699 53.27 138.739 53.27ZM138.739 54.62C137.554 54.62 136.669 55.415 136.669 56.615C136.669 57.83 137.554 58.625 138.739 58.625C139.924 58.625 140.809 57.83 140.809 56.615C140.809 55.415 139.924 54.62 138.739 54.62Z" fill="#707070"/>
<rect x="1" y="80" width="238" height="94" fill="white" stroke="#848890" stroke-width="2"/>
<path d="M50.6716 107.74H51.5116V112.59H50.6716V107.74ZM45.6816 113.04H46.5016V114.14H50.6916V113.04H51.5116V116.66H45.6816V113.04ZM46.5016 114.8V115.99H50.6916V114.8H46.5016ZM46.6616 108.17C48.0316 108.17 49.0116 109.02 49.0116 110.25C49.0116 111.49 48.0316 112.34 46.6616 112.34C45.2916 112.34 44.3016 111.49 44.3016 110.25C44.3016 109.02 45.2916 108.17 46.6616 108.17ZM46.6616 108.86C45.7616 108.86 45.1116 109.43 45.1116 110.25C45.1116 111.07 45.7616 111.64 46.6616 111.64C47.5616 111.64 48.2116 111.07 48.2116 110.25C48.2116 109.43 47.5616 108.86 46.6616 108.86ZM54.3408 108.21H60.1608V108.89H54.3408V108.21ZM53.3008 111.54H61.4908V112.22H53.3008V111.54ZM59.6208 108.21H60.4308V108.88C60.4308 109.65 60.4308 110.53 60.1308 111.78L59.3208 111.74C59.6208 110.5 59.6208 109.63 59.6208 108.88V108.21ZM54.3008 113.45H60.4608V116.66H54.3008V113.45ZM59.6508 114.11H55.1108V115.99H59.6508V114.11ZM64.73 109.03H65.39V110.5C65.39 112.38 64.24 114.32 62.83 115.04L62.35 114.38C63.64 113.75 64.73 112.03 64.73 110.5V109.03ZM64.88 109.03H65.54V110.5C65.54 111.93 66.56 113.54 67.87 114.16L67.4 114.82C65.97 114.11 64.88 112.29 64.88 110.5V109.03ZM62.67 108.66H67.54V109.36H62.67V108.66ZM68.61 107.74H69.45V116.78H68.61V107.74ZM69.25 111.39H70.93V112.09H69.25V111.39ZM76.0092 109.2H78.6192V109.88H76.0092V109.2ZM76.0092 111H78.6392V111.67H76.0092V111ZM78.2992 107.74H79.1292V113.09H78.2992V107.74ZM72.1092 108.42H76.2392V112.44H72.1092V108.42ZM75.4192 109.09H72.9192V111.78H75.4192V109.09ZM76.1592 113.35C78.0192 113.35 79.1692 113.98 79.1692 115.06C79.1692 116.14 78.0192 116.76 76.1592 116.76C74.2892 116.76 73.1392 116.14 73.1392 115.06C73.1392 113.98 74.2892 113.35 76.1592 113.35ZM76.1592 114.01C74.7992 114.01 73.9692 114.4 73.9692 115.06C73.9692 115.72 74.7992 116.11 76.1592 116.11C77.5192 116.11 78.3492 115.72 78.3492 115.06C78.3492 114.4 77.5192 114.01 76.1592 114.01Z" fill="#848890"/>
<path d="M186.871 107.74H187.711V112.59H186.871V107.74ZM181.881 113.04H182.701V114.14H186.891V113.04H187.711V116.66H181.881V113.04ZM182.701 114.8V115.99H186.891V114.8H182.701ZM182.861 108.17C184.231 108.17 185.211 109.02 185.211 110.25C185.211 111.49 184.231 112.34 182.861 112.34C181.491 112.34 180.501 111.49 180.501 110.25C180.501 109.02 181.491 108.17 182.861 108.17ZM182.861 108.86C181.961 108.86 181.311 109.43 181.311 110.25C181.311 111.07 181.961 111.64 182.861 111.64C183.761 111.64 184.411 111.07 184.411 110.25C184.411 109.43 183.761 108.86 182.861 108.86ZM190.54 108.21H196.36V108.89H190.54V108.21ZM189.5 111.54H197.69V112.22H189.5V111.54ZM195.82 108.21H196.63V108.88C196.63 109.65 196.63 110.53 196.33 111.78L195.52 111.74C195.82 110.5 195.82 109.63 195.82 108.88V108.21ZM190.5 113.45H196.66V116.66H190.5V113.45ZM195.85 114.11H191.31V115.99H195.85V114.11Z" fill="#848890"/>
<rect x="33" y="124" width="58" height="27" stroke="#FB1010" stroke-width="2"/>
<path d="M43.6153 144V142.632H46.5493V132.804H44.1913V131.742C45.3793 131.544 46.2253 131.238 46.9273 130.806H48.1873V142.632H50.8513V144H43.6153ZM52.8076 144V143.046C56.9476 139.428 58.8376 136.782 58.8376 134.532C58.8376 133.02 58.0636 131.904 56.4256 131.904C55.3456 131.904 54.4096 132.57 53.6716 133.434L52.7176 132.516C53.7976 131.346 54.9496 130.572 56.6236 130.572C58.9816 130.572 60.4576 132.102 60.4576 134.46C60.4576 137.106 58.3876 139.788 55.2736 142.722C55.9756 142.65 56.7676 142.596 57.4336 142.596H61.0876V144H52.8076ZM66.734 144.252C64.664 144.252 63.386 143.388 62.522 142.434L63.35 141.354C64.124 142.164 65.114 142.884 66.626 142.884C68.192 142.884 69.308 141.93 69.308 140.418C69.308 138.834 68.246 137.79 65.204 137.79V136.512C67.922 136.512 68.84 135.432 68.84 133.992C68.84 132.732 67.994 131.904 66.626 131.904C65.564 131.904 64.628 132.444 63.89 133.2L63.008 132.138C63.998 131.238 65.168 130.572 66.68 130.572C68.894 130.572 70.514 131.778 70.514 133.884C70.514 135.486 69.578 136.548 68.174 137.052V137.124C69.722 137.502 70.982 138.672 70.982 140.49C70.982 142.83 69.092 144.252 66.734 144.252ZM78.0864 144V135.018C78.0864 134.352 78.1404 133.29 78.1944 132.606H78.1044C77.7804 133.254 77.4204 133.92 77.0604 134.568L74.0544 139.068H81.3984V140.364H72.3264V139.284L77.8164 130.806H79.6344V144H78.0864Z" fill="black"/>
<path d="M177.313 144V142.632H180.247V132.804H177.889V131.742C179.077 131.544 179.923 131.238 180.625 130.806H181.885V142.632H184.549V144H177.313ZM191.221 137.322H192.715V140.94H191.221V137.322ZM198.439 129.132H199.933V141.516H198.439V129.132ZM188.827 143.82H200.329V145.044H188.827V143.82ZM188.827 140.31H190.321V144.162H188.827V140.31ZM186.721 137.88L186.523 136.656C189.529 136.656 193.561 136.62 197.017 136.17L197.125 137.268C193.615 137.826 189.673 137.88 186.721 137.88ZM195.127 138.744H198.817V139.842H195.127V138.744ZM191.815 129.798C194.191 129.798 195.811 130.914 195.811 132.624C195.811 134.352 194.191 135.468 191.815 135.468C189.421 135.468 187.801 134.352 187.801 132.624C187.801 130.914 189.421 129.798 191.815 129.798ZM191.815 130.914C190.285 130.914 189.223 131.58 189.223 132.624C189.223 133.668 190.285 134.334 191.815 134.334C193.327 134.334 194.389 133.668 194.389 132.624C194.389 131.58 193.327 130.914 191.815 130.914Z" fill="black"/>
</svg>
