<svg width="40" height="40" viewBox="0 0 40 40" fill="none" xmlns="http://www.w3.org/2000/svg">
<rect width="40" height="40" rx="16" fill="white"/>
<g clip-path="url(#clip0_252_3585)">
<path d="M25.6718 23.0776C25.5864 22.5781 25.441 22.0905 25.2388 21.6255C24.6513 20.2445 23.644 19.0815 22.3582 18.2996C21.3427 17.704 20.1838 17.3938 19.0051 17.402C17.8264 17.4103 16.672 17.7367 15.665 18.3464C14.7268 18.906 13.9665 19.7179 13.4716 20.6886C13.3031 21.0204 13.1614 21.365 13.048 21.7191C12.7416 22.6389 12.6245 23.6107 12.7037 24.5765C12.783 25.5423 13.0569 26.4823 13.5092 27.3404C13.8187 27.8655 14.2911 28.2765 14.8554 28.5115C15.1371 28.6282 15.4424 28.6772 15.7467 28.6544C16.0509 28.6316 16.3455 28.5377 16.6064 28.3803C16.8934 28.1537 17.1078 27.8485 17.2232 27.5024C17.3386 27.1562 17.3499 26.7841 17.2559 26.4316C17.0373 25.536 17.06 24.5988 17.3218 23.7147C17.4257 23.4257 17.5929 23.1632 17.8113 22.9464C17.947 22.8164 18.1027 22.7089 18.2726 22.6279C18.6273 22.4505 19.028 22.3851 19.4211 22.4405C19.7621 22.5139 20.0808 22.6668 20.3509 22.8867C20.6209 23.1066 20.8346 23.3871 20.9744 23.7053C21.2358 24.3289 21.3732 24.9971 21.3792 25.6727C21.384 28.7239 20.9302 31.7585 20.033 34.6761C19.9483 34.9759 19.8635 35.2663 19.7882 35.5661C19.7129 35.8659 19.5999 36.0814 19.7882 36.3062C19.8539 36.3991 19.9456 36.4708 20.0518 36.5123C20.5037 36.6904 20.8614 36.4186 21.1626 36.1189C22.8726 34.296 24.1328 32.1021 24.8434 29.7107C25.1392 28.8344 25.3751 27.9392 25.5495 27.0312C25.8184 25.721 25.8661 24.3753 25.6907 23.0495" fill="#008375"/>
<path d="M38.3239 9.19317C38.3205 9.09013 38.296 8.98886 38.2519 8.89556C38.2078 8.80226 38.1451 8.71889 38.0676 8.65051C37.9901 8.58213 37.8994 8.53017 37.801 8.49783C37.7027 8.46549 37.5987 8.45344 37.4955 8.46241C37.0618 8.52212 36.6415 8.65519 36.2529 8.85588C28.3224 11.6805 19.8064 12.4794 11.4852 11.1793C10.0826 10.9732 8.66111 10.7015 7.24905 10.4767C6.36415 10.3361 5.48867 10.1394 4.60378 10.0738C3.80367 9.92104 2.97514 10.0786 2.28799 10.5142C1.935 10.9005 1.71609 11.3895 1.66355 11.909C1.61101 12.4285 1.72761 12.9511 1.99616 13.3997C2.59575 14.4217 3.46499 15.2608 4.50964 15.8262C5.47919 16.51 6.62662 16.9004 7.81387 16.9505C10.9518 16.7443 14.0897 16.4321 17.2276 16.0136C22.5464 15.3297 28.11 14.6832 33.1087 12.6315C34.7625 11.9769 36.3203 11.1041 37.7403 10.0363C37.9945 9.84897 38.3616 9.53044 38.3616 9.16506" fill="#008375"/>
<path d="M16.0133 6.54183C16.0133 7.34937 16.3356 8.12384 16.9094 8.69485C17.4832 9.26587 18.2614 9.58667 19.0728 9.58667C19.8842 9.58667 20.6624 9.26587 21.2362 8.69485C21.8099 8.12384 22.1323 7.34937 22.1323 6.54183C22.1318 6.28969 22.0772 6.04054 21.9722 5.81108C21.7086 5.25832 21.4074 4.98663 21.4451 4.32145C21.4451 3.43143 20.3248 3.38458 19.7035 3.38458C19.0128 3.36219 18.3263 3.50013 17.6984 3.78746C17.2107 4.03446 16.798 4.40636 16.5028 4.86486C16.1933 5.33284 16.0235 5.87862 16.0133 6.43879V6.51373" fill="#D50037"/>
</g>
<defs>
<clipPath id="clip0_252_3585">
<rect width="36.6667" height="33.1746" fill="white" transform="translate(1.66669 3.41269)"/>
</clipPath>
</defs>
</svg>
