<svg width="40" height="41" viewBox="0 0 40 41" fill="none" xmlns="http://www.w3.org/2000/svg">
<g clip-path="url(#clip0_252_3587)">
<rect x="1.66669" y="2.57578" width="36.6667" height="35.5154" rx="16" fill="white"/>
<path d="M38.1205 15.3269C38.4664 14.2826 38.3835 13.1437 37.8901 12.1604C37.3967 11.1772 36.5331 10.4301 35.489 10.0833L13.7599 2.78861C13.2427 2.61308 12.6957 2.54236 12.1509 2.58057C11.6061 2.61877 11.0743 2.76515 10.5867 3.01114" fill="white"/>
<path d="M10.5866 3.01114C9.60265 3.50357 8.85448 4.36656 8.50659 5.41043L1.8795 25.3304C1.5363 26.3748 1.62043 27.5125 2.11351 28.4951C2.60659 29.4776 3.46853 30.225 4.51099 30.574L26.2498 37.8687C26.7674 38.0421 27.3141 38.1117 27.8586 38.0735C28.4031 38.0353 28.9347 37.8901 29.423 37.6461C29.9103 37.4039 30.3444 37.067 30.6999 36.655C31.0554 36.2431 31.3252 35.7643 31.4934 35.2468L38.1302 15.3269" fill="white"/>
<path d="M21.219 22.1475C20.0227 23.488 18.5282 24.5286 16.8558 25.1853L15.8883 25.5626V16.333L16.8558 16.7103C18.5303 17.3636 20.0281 18.4008 21.2287 19.7385C21.9885 18.4954 22.4676 17.1014 22.6325 15.6538C22.7974 14.2063 22.6442 12.7402 22.1835 11.3581C21.7228 9.97595 20.9657 8.71113 19.9653 7.65205C18.9648 6.59297 17.7451 5.7652 16.3914 5.22661L13.2181 4.14306C12.8821 4.03279 12.5276 3.98987 12.175 4.01676C11.8224 4.04365 11.4785 4.13984 11.1631 4.2998C10.8477 4.45975 10.5669 4.68035 10.3368 4.94895C10.1068 5.21755 9.93195 5.52889 9.82237 5.86514L3.17593 25.8044C2.95893 26.4909 3.02101 27.2352 3.34875 27.8762C3.67649 28.5171 4.2435 29.0033 4.92703 29.2292L20.0097 34.26C21.514 32.6538 22.446 30.5959 22.6612 28.4058C22.8764 26.2157 22.3626 24.0158 21.1997 22.1475H21.219ZM12.4926 15.7816V26.1334H10.993V15.8106L12.4926 15.7816Z" fill="#2293C8"/>
<path d="M20.3484 20.9381C19.4989 19.946 18.4678 19.1251 17.3105 18.5195V23.3568C18.4727 22.7463 19.5046 21.9148 20.3484 20.9091" fill="#E43D30"/>
<path d="M35.015 11.4087L21.1707 6.78421C22.9097 8.68588 23.9522 11.1212 24.128 13.6921C24.3037 16.263 23.6022 18.8175 22.1381 20.9381C23.5607 22.9954 24.2671 25.4635 24.1482 27.9619C24.0293 30.4603 23.0918 32.8502 21.4802 34.7631L26.6852 36.4949C27.0211 36.6065 27.3759 36.6504 27.7289 36.6241C28.082 36.5978 28.4263 36.5019 28.7421 36.3417C29.0578 36.1816 29.3387 35.9605 29.5685 35.6912C29.7983 35.4219 29.9725 35.1098 30.0809 34.7728L36.7564 14.8431C36.9765 14.158 36.917 13.4137 36.5908 12.7722C36.2646 12.1308 35.6982 11.6442 35.015 11.4183V11.4087ZM31.3483 26.114H29.4714L25.6016 20.9381L29.4714 15.7719H31.4064L27.5365 20.9575L31.3483 26.114Z" fill="#215C9C"/>
</g>
<defs>
<clipPath id="clip0_252_3587">
<rect x="1.66669" y="2.57578" width="36.6667" height="35.5154" rx="16" fill="white"/>
</clipPath>
</defs>
</svg>
