<svg width="40" height="41" viewBox="0 0 40 41" fill="none" xmlns="http://www.w3.org/2000/svg">
<rect y="0.333496" width="40" height="40" rx="16" fill="white"/>
<g clip-path="url(#clip0_252_3590)">
<path d="M36.6666 32.2206C36.6664 32.8454 36.543 33.4642 36.3036 34.0414C36.0642 34.6186 35.7135 35.143 35.2714 35.5846C34.8293 36.0263 34.3046 36.3765 33.7271 36.6154C33.1497 36.8542 32.5309 36.9769 31.906 36.9766H8.09465C6.83262 36.9771 5.62205 36.4764 4.72917 35.5845C3.83628 34.6926 3.33419 33.4826 3.33331 32.2206V8.44436C3.33437 7.18251 3.83656 5.97274 4.72944 5.0811C5.62233 4.18945 6.8328 3.68895 8.09465 3.68965H31.906C32.5308 3.68922 33.1495 3.81186 33.7269 4.05058C34.3043 4.2893 34.8291 4.63942 35.2711 5.08094C35.7132 5.52247 36.064 6.04675 36.3034 6.62385C36.5429 7.20095 36.6663 7.81956 36.6666 8.44436V32.2206Z" fill="#FFE400"/>
<path d="M27.1493 23.6629C26.9998 22.5027 26.4198 21.441 25.5242 20.6884C25.3916 20.5718 25.2478 20.4631 25.0887 20.3338C25.2213 20.2344 25.3313 20.1582 25.434 20.0727C26.0787 19.5391 26.5766 18.85 26.8809 18.0705C27.169 17.3334 27.2604 16.5339 27.146 15.7508C27.0192 14.7982 26.5982 13.9089 25.9417 13.2071C25.4739 12.6861 24.8959 12.2758 24.2497 12.0061C23.6221 11.7521 22.9503 11.6248 22.2733 11.6317H14.6859C14.6336 11.6287 14.5811 11.6287 14.5288 11.6317C14.4456 11.6355 14.3672 11.6718 14.3104 11.7327C14.2537 11.7937 14.2231 11.8745 14.2253 11.9578C14.2253 12.0108 14.2253 12.0631 14.2253 12.1155V28.5091C14.2253 28.5913 14.2206 28.6741 14.2253 28.7563C14.2287 28.8242 14.2557 28.8888 14.3017 28.939C14.3477 28.9891 14.4097 29.0215 14.4771 29.0307C14.5292 29.037 14.5818 29.039 14.6342 29.0367H22.492C23.2833 29.0398 24.0612 28.8318 24.7454 28.4342C25.723 27.8849 26.4775 27.0108 26.8782 25.9634C27.1674 25.2333 27.2609 24.4403 27.1493 23.6629ZM21.1108 24.2528H19.6931V16.4321H21.0949C21.0949 16.4321 21.0896 16.4281 21.0949 16.4281V16.4321H21.1108V24.2528Z" fill="#1E1719"/>
</g>
<defs>
<clipPath id="clip0_252_3590">
<rect width="33.3333" height="33.2876" fill="white" transform="translate(3.33331 3.6897)"/>
</clipPath>
</defs>
</svg>
