<svg width="40" height="41" viewBox="0 0 40 41" fill="none" xmlns="http://www.w3.org/2000/svg">
<path d="M37.6998 20.6866L37.3852 20.4692C36.7701 19.8642 36.0397 19.4127 35.2456 19.1465C34.4514 18.8803 33.613 18.806 32.7894 18.9287C31.3556 19.0568 29.9741 19.5701 28.7702 20.4219V20.3463C28.7814 19.7522 28.8223 19.1591 28.8925 18.5696C28.9449 17.9553 29.0061 17.341 29.0061 16.7551C29.0246 16.1941 28.9384 15.6348 28.7527 15.1107C28.7305 15.0487 28.6905 14.996 28.6386 14.9603C28.5867 14.9246 28.5257 14.9077 28.4643 14.9122C27.8087 14.9789 27.1755 15.2051 26.612 15.5738L26.4722 15.8951C26.4698 16.7945 26.3791 17.691 26.2013 18.5696C26.182 18.6466 26.1587 18.7223 26.1314 18.7964C25.9132 21.0584 25.9132 23.3389 26.1314 25.6009C26.1314 25.7899 26.5072 26.0829 26.7693 26.1963C27.3696 26.2122 27.9659 26.0865 28.5168 25.8277H28.7177C28.7578 25.8221 28.7964 25.8076 28.8311 25.7852C28.8658 25.7629 28.896 25.7331 28.9197 25.6977C28.9434 25.6624 28.9602 25.6221 28.969 25.5795C28.9779 25.5368 28.9786 25.4927 28.9711 25.4497V24.8921C29.2102 23.922 29.6858 23.0392 30.3483 22.336C31.0108 21.6327 31.8357 21.1349 32.7369 20.8945C33.1874 20.789 33.6555 20.8138 34.0943 20.9665C34.533 21.1191 34.9267 21.3942 35.2358 21.7639C35.4359 22.7035 35.2885 23.6904 34.8252 24.5141C34.1725 25.6698 33.1591 26.5347 31.968 26.9524C30.5685 27.4917 29.082 27.7168 27.5993 27.6139C27.5207 27.5667 25.9829 26.442 25.9829 26.442C24.5615 25.2677 23.0193 24.2751 21.387 23.484C21.0119 23.2576 20.6604 22.9883 20.3385 22.6807L20.19 22.5389C19.3163 21.764 17.6125 20.5543 16.2582 19.5808L15.533 19.0421V18.8815C15.533 18.8343 16.4067 18.2861 16.4067 18.2861C17.0711 17.9312 17.6932 17.49 18.259 16.9724L18.425 16.8685L21.3783 15.054C24.2092 13.3717 27.4246 11.4627 29.1109 9.57258L29.1895 9.27961V9.02443C29.2897 8.67669 29.2897 8.30426 29.1895 7.95653C29.1785 7.89581 29.151 7.84001 29.1105 7.79626C29.0701 7.7525 29.0185 7.72276 28.9624 7.7108C27.643 7.56904 25.948 8.4196 24.4014 9.98842C24.1154 10.2732 23.795 10.5148 23.4491 10.7066L23.2132 10.839C21.4657 11.888 17.6649 14.468 15.6553 15.8667C15.8452 13.0315 16.1866 10.2105 16.6776 7.41783L16.6251 7.08705L16.4154 6.67122L16.2582 6.36879C15.9556 6.2092 15.607 6.18544 15.2883 6.30266L14.8864 6.4633L14.3534 6.67122C14.3026 6.6829 14.2553 6.708 14.2157 6.74427C14.176 6.78055 14.1453 6.82689 14.1262 6.87914C13.0378 10.0745 12.3816 13.4231 12.1778 16.8212C10.7047 15.8215 9.18213 14.9097 7.61687 14.09H7.51202C7.12937 13.9868 6.76787 13.8073 6.44605 13.5608L5.72085 13.0504L4.60246 12.2755L4.30539 12.1999C3.65382 12.4227 3.07477 12.8424 2.63654 13.4096C2.60319 13.4696 2.58511 13.538 2.58412 13.608C2.5923 13.7043 2.60987 13.7993 2.63654 13.8915L2.68897 14.1372L2.74139 14.2885C3.73232 15.1873 4.82088 15.9522 5.98297 16.5661L7.51202 17.445L9.86239 18.8248L10.2643 19.1745L10.5352 19.3446H10.5876C9.95849 19.7888 6.32373 22.4255 6.32373 22.4255L4.03453 24.1266C3.61498 24.3753 3.18331 24.5993 2.74139 24.7976C2.3164 24.9586 1.95751 25.2765 1.72785 25.6954L1.66669 25.8372L1.72785 25.9317L1.9026 26.0735L2.12977 26.2341L2.38315 26.4137L2.61033 26.4609C3.33766 26.3543 4.04005 26.101 4.6811 25.7143C5.6859 25.2323 8.41198 23.4556 9.58279 22.6996L10.0808 22.3688C10.3178 22.3341 10.5383 22.2182 10.7099 22.038C11.0395 21.7745 11.3905 21.5436 11.7584 21.3481C11.7584 21.3481 11.9506 21.2347 12.1166 21.1402V21.2914C12.0962 24.2484 12.3126 27.2017 12.7632 30.1183V30.2129C13.0331 30.8606 13.2353 31.539 13.3661 32.2353L13.803 33.8419L13.934 33.9931C14.3981 34.2938 14.9309 34.4477 15.4718 34.4373H15.6029L15.6815 34.2389C15.7247 33.996 15.7452 33.749 15.7427 33.5017C15.7427 33.2087 15.7427 32.8874 15.7427 32.4905V31.914C15.5767 29.2205 15.4194 25.2985 15.4194 22.7468V22.5389L17.6911 24.0888C20.8366 26.2908 25.5548 29.6364 28.4643 30.5153C28.5366 30.5386 28.6132 30.5412 28.6867 30.523C28.7602 30.5048 28.8281 30.4663 28.8837 30.4113L29.3293 30.1089H29.408C29.5062 30.0229 29.5843 29.913 29.6359 29.7882C29.6875 29.6634 29.7112 29.5272 29.7051 29.3907C32.1253 29.2678 35.5067 28.2566 37.3153 25.7994C37.9614 24.9088 38.3177 23.8126 38.3289 22.6807C38.3675 21.9907 38.1542 21.312 37.7347 20.7905" fill="#FCAF17"/>
</svg>
