<svg width="40" height="41" viewBox="0 0 40 41" fill="none" xmlns="http://www.w3.org/2000/svg">
<rect y="0.333496" width="40" height="40" rx="16" fill="white"/>
<g clip-path="url(#clip0_252_3589)">
<path d="M26.4957 3.8663L20 7.13316L13.5043 3.8663L20 16.212L26.4957 3.8663Z" fill="#FFB71B"/>
<path d="M28.8135 13.366L33.4479 11.4286V4.89493L25.3947 8.35173L20.9122 16.7848C22.6366 16.9836 24.2197 17.8344 25.3371 19.1628C26.4545 20.4912 27.0215 22.1967 26.9219 23.9297C26.8224 25.6627 26.0638 27.292 24.8016 28.4837C23.5395 29.6754 21.8694 30.3393 20.1335 30.3393C18.3977 30.3393 16.7275 29.6754 15.4654 28.4837C14.2033 27.292 13.4447 25.6627 13.3451 23.9297C13.2455 22.1967 13.8125 20.4912 14.9298 19.1628C16.0472 17.8344 17.6303 16.9836 19.3547 16.7848L14.8723 8.35173L6.85718 4.89493V11.4286L11.5675 13.366C9.52461 15.1517 8.07519 17.5181 7.4127 20.1493C6.7502 22.7805 6.90613 25.5511 7.85982 28.0913C8.81352 30.6315 10.5195 32.8203 12.7499 34.3654C14.9804 35.9104 17.6291 36.7382 20.3424 36.7382C23.0557 36.7382 25.7045 35.9104 27.9349 34.3654C30.1653 32.8203 31.8713 30.6315 32.825 28.0913C33.7787 25.5511 33.9347 22.7805 33.2722 20.1493C32.6098 17.5181 31.1602 15.1517 29.1173 13.366H28.8135Z" fill="#FFB71B"/>
</g>
<defs>
<clipPath id="clip0_252_3589">
<rect width="26.6667" height="32.9345" fill="white" transform="translate(6.66669 3.8663)"/>
</clipPath>
</defs>
</svg>
