<svg width="40" height="41" viewBox="0 0 40 41" fill="none" xmlns="http://www.w3.org/2000/svg">
<rect y="0.333496" width="40" height="40" rx="16" fill="white"/>
<g clip-path="url(#clip0_252_3588)">
<path fill-rule="evenodd" clip-rule="evenodd" d="M15.3357 37.4208C14.5198 37.9738 13.5662 38.2888 12.5814 38.3307C11.4346 38.3099 10.3379 37.8566 9.51097 37.0616C8.68408 36.2667 8.18802 35.1887 8.12207 34.0435L12.7454 31.2974L19.918 34.5108L15.3357 37.4208Z" fill="#72A3B6"/>
<path fill-rule="evenodd" clip-rule="evenodd" d="M18.0654 25.6003L14.6389 24.0919C13.106 23.4198 11.6633 22.8378 11.6633 21.1573C11.6406 20.8299 11.689 20.5014 11.805 20.1944C11.921 19.8874 12.1019 19.6091 12.3355 19.3785L19.5737 22.559L17.7949 23.6083C17.2949 23.9034 16.9752 24.1739 16.9752 24.5592C16.9752 24.9445 17.4424 25.3215 18.09 25.6003H18.0654Z" fill="#96CE8E"/>
<path fill-rule="evenodd" clip-rule="evenodd" d="M21.4263 9.78762L17.9096 11.9271C17.5981 12.1156 17.1719 12.4108 17.1719 12.8862C17.1719 13.3617 17.9916 13.8207 18.7048 14.165L14.3192 12.2304C13.0322 11.6566 11.7288 11.0172 11.7288 9.45152C11.72 8.86742 11.8918 8.29485 12.2207 7.81206L21.7296 2.00833C22.3951 2.37425 22.952 2.90978 23.3436 3.56054C23.7352 4.2113 23.9476 4.95413 23.9592 5.71354C23.965 6.56574 23.7304 7.40231 23.2824 8.12726C22.8344 8.85222 22.1911 9.4362 21.4263 9.81221V9.78762Z" fill="#72A3B6"/>
<path fill-rule="evenodd" clip-rule="evenodd" d="M28.894 16.6406L28.0251 17.1406L20.754 13.9355L29.1973 8.84491C29.8648 9.21289 30.4242 9.7494 30.8197 10.4009C31.2152 11.0525 31.4331 11.7963 31.4516 12.5583C31.4651 13.4152 31.2309 14.2578 30.7772 14.9848C30.3235 15.7119 29.6696 16.2925 28.894 16.657V16.6406Z" fill="#96CE8E"/>
<path fill-rule="evenodd" clip-rule="evenodd" d="M22.7542 22.8214L27.0578 24.7068C28.6973 25.4281 29.1645 26.2806 29.1645 27.3463C29.1503 27.6617 29.07 27.9707 28.9288 28.2531C28.7876 28.5355 28.5886 28.7851 28.3448 28.9858L21.1229 25.7724L22.3361 25.1002C23.369 24.5182 23.7215 24.1821 23.7215 23.805C23.7215 23.428 23.4674 23.1575 22.7624 22.8296L22.7542 22.8214Z" fill="#72A3B6"/>
<path fill-rule="evenodd" clip-rule="evenodd" d="M30.4351 38.6668C28.5226 37.2879 26.4533 36.1405 24.2707 35.2485L13.3355 30.3875C10.5812 29.1579 8.75317 27.5348 8.75317 24.7805C8.75317 22.0262 10.0484 20.813 11.7288 19.7474L12.3354 19.3785C12.1019 19.6091 11.9209 19.8874 11.8049 20.1944C11.6889 20.5014 11.6406 20.8299 11.6632 21.1573C11.6632 22.8378 13.106 23.4198 14.6389 24.0919L27.3611 29.6989C29.5908 30.658 31.6073 32.2975 31.6073 35.0682C31.6348 36.3658 31.2216 37.6343 30.4351 38.6668Z" fill="#4C9847"/>
<path fill-rule="evenodd" clip-rule="evenodd" d="M29.1236 28.4775L28.3038 28.9776C28.5477 28.7769 28.7466 28.5273 28.8878 28.2449C29.029 27.9625 29.1094 27.6535 29.1236 27.3381C29.1236 26.2724 28.6235 25.4199 27.0168 24.6985L13.4093 18.7227C10.655 17.4849 8.94173 15.9192 8.94173 13.1813C8.93272 12.0724 9.23034 10.9826 9.80174 10.0322C10.3731 9.08179 11.1961 8.30778 12.1797 7.79565C11.8508 8.27845 11.679 8.85102 11.6878 9.43512C11.6878 11.0008 12.9912 11.6402 14.2782 12.214L27.5005 18.0505C29.9187 19.1244 31.8697 20.7475 31.8697 23.6657C31.8976 24.6452 31.6515 25.6131 31.1591 26.4604C30.6667 27.3076 29.9475 28.0006 29.0826 28.4611L29.1236 28.4775Z" fill="#296085"/>
</g>
<defs>
<clipPath id="clip0_252_3588">
<rect width="23.8051" height="36.6667" fill="white" transform="translate(8.09741 2.00015)"/>
</clipPath>
</defs>
</svg>
