<svg width="40" height="41" viewBox="0 0 40 41" fill="none" xmlns="http://www.w3.org/2000/svg">
<rect y="0.333496" width="40" height="40" rx="16" fill="white"/>
<g clip-path="url(#clip0_252_3584)">
<path d="M19.1823 2.26395C15.608 2.42604 12.1621 3.64459 9.28053 5.76541C6.39891 7.88624 4.21103 10.8141 2.99367 14.1785C1.77631 17.543 1.58415 21.1929 2.44151 24.6666C3.29886 28.1403 5.16724 31.2817 7.81024 33.6934C10.4532 36.105 13.7521 37.6787 17.2896 38.2152C20.8271 38.7517 24.4442 38.2269 27.6834 36.7074C30.9226 35.1878 33.6384 32.7416 35.4871 29.6783C37.3359 26.6151 38.2346 23.0723 38.0696 19.4982C37.9634 17.1248 37.3906 14.7957 36.3837 12.6439C35.3768 10.4921 33.9557 8.55984 32.2016 6.95762C30.4475 5.3554 28.3948 4.11463 26.1608 3.30624C23.9269 2.49785 21.5555 2.1377 19.1823 2.24637V2.26395Z" fill="url(#paint0_radial_252_3584)"/>
<path d="M19.1734 2.01824C15.5509 2.182 12.0582 3.41639 9.13725 5.56527C6.21627 7.71414 3.99818 10.681 2.76347 14.0906C1.52877 17.5001 1.33294 21.1993 2.20074 24.7202C3.06853 28.2411 4.96098 31.4256 7.63873 33.8708C10.3165 36.3161 13.6592 37.9124 17.2443 38.4577C20.8293 39.0031 24.4955 38.473 27.7793 36.9345C31.063 35.3961 33.8167 32.9184 35.6922 29.8148C37.5677 26.7112 38.4807 23.1212 38.3157 19.4987C38.0945 14.6417 35.9539 10.0714 32.3645 6.79193C28.7751 3.51249 24.0305 1.7923 19.1734 2.00944V2.01824ZM21.3189 19.8064C24.5811 22.8136 26.3661 24.4315 26.3661 24.4315C32.1079 29.2149 30.147 33.585 27.9488 35.1062C26.1821 36.2845 24.1106 36.923 21.9872 36.9439C21.9137 36.955 21.8387 36.9512 21.7667 36.9328C21.6947 36.9143 21.6271 36.8815 21.568 36.8364C21.509 36.7913 21.4596 36.7347 21.4228 36.6701C21.3861 36.6055 21.3627 36.5341 21.3541 36.4603C21.3541 36.047 21.9432 35.9415 21.9432 35.9415C27.3685 34.8776 25.7769 31.3164 23.8601 29.5051C23.0599 28.7401 15.5068 22.2245 15.5068 22.2245C8.31411 16.0694 8.88565 11.1893 8.88565 11.1893C9.22858 5.23646 14.4428 3.75924 18.3908 4.10217C18.8481 4.14613 19.1031 4.42752 19.0239 4.80562C18.9448 5.18372 18.3293 5.26285 18.3293 5.26285C17.2016 5.23356 16.0859 5.50035 15.0935 6.03663C11.9192 8.17332 12.8601 11.8136 17.0983 15.8584C17.6259 16.3684 18.1974 16.9047 18.7777 17.4499C18.7777 17.4499 19.6306 18.1973 21.3189 19.8064ZM18.8569 35.1941C18.8569 35.7832 17.4764 36.0294 15.8673 35.8712C13.4612 35.7 11.1697 34.7773 9.3165 33.2333C7.53309 31.6275 6.24313 29.5477 5.59709 27.2365C4.99917 25.1613 4.7178 22.7433 5.73778 22.9279C6.03674 22.9895 6.56431 24.326 7.12706 25.2932C7.50365 26.0181 8.02077 26.6607 8.64825 27.1837C8.85049 27.3332 9.52752 25.7944 10.5475 24.9239C11.1278 24.4403 11.7697 24.2732 11.8753 25.7153C11.9984 27.4739 11.6818 29.5842 12.1918 29.5842C12.7018 29.5842 13.7658 29.2149 16.1486 29.0127C17.0279 28.9423 17.5555 29.1094 16.7026 30.314C16.0792 31.2631 15.2828 32.0864 14.3549 32.7409C16.3861 34.6226 18.8129 34.394 18.8569 35.1941ZM20.4572 16.7289C20.2948 15.9745 20.271 15.1968 20.3868 14.4339C20.6272 12.8739 21.1015 11.3592 21.7937 9.94071C22.673 7.85678 20.6155 6.63455 20.9144 5.86956C21.3717 4.83199 22.8137 6.15093 24.4316 6.24765C25.8121 6.32679 26.6474 6.24767 27.7202 6.39715C29.1447 6.59059 30.8505 7.06541 31.6067 7.96229C32.3629 8.85918 31.2462 9.77365 29.9624 9.14935C29.0303 8.69211 27.8521 8.97349 28.5379 9.94951C29.054 10.597 29.801 11.0194 30.6219 11.1278C32.952 11.7433 33.0048 13.9767 31.422 15.1374C29.6195 16.4475 27.8081 15.9111 27.0783 13.326C26.709 12.0334 25.7945 11.3827 24.8625 11.7433C23.9304 12.1038 24.4844 13.8096 25.1966 15.3748C26.6035 18.9799 23.0951 18.8919 22.6906 18.8128C22.1615 18.7039 21.6729 18.4508 21.2787 18.0815C20.8845 17.7122 20.6002 17.241 20.4572 16.7201V16.7289Z" fill="url(#paint1_radial_252_3584)"/>
</g>
<defs>
<radialGradient id="paint0_radial_252_3584" cx="0" cy="0" r="1" gradientUnits="userSpaceOnUse" gradientTransform="translate(22.8238 14.412) scale(17.1849 17.1849)">
<stop stop-color="white"/>
<stop offset="1" stop-color="#CF9C51"/>
</radialGradient>
<radialGradient id="paint1_radial_252_3584" cx="0" cy="0" r="1" gradientUnits="userSpaceOnUse" gradientTransform="translate(18.5695 9.18028) scale(38.4942 38.4942)">
<stop stop-color="#00C0F3"/>
<stop offset="0.22" stop-color="#0097D6"/>
<stop offset="0.28" stop-color="#0086CA"/>
<stop offset="0.37" stop-color="#0074BD"/>
<stop offset="0.46" stop-color="#0069B5"/>
<stop offset="0.57" stop-color="#0066B3"/>
</radialGradient>
<clipPath id="clip0_252_3584">
<rect width="36.6667" height="36.6667" fill="white" transform="translate(1.66669 2.00015)"/>
</clipPath>
</defs>
</svg>
