<svg width="40" height="41" viewBox="0 0 40 41" fill="none" xmlns="http://www.w3.org/2000/svg">
<rect y="0.333496" width="40" height="40" rx="16" fill="white"/>
<path d="M22.526 4.35838C30.4603 4.4437 37.2854 10.4157 38.2239 18.4779C39.2477 27.2653 32.9771 35.1995 24.147 36.1806C23.5498 36.266 22.91 36.3086 22.3128 36.3086H22.1421C16.5967 36.2233 11.6485 32.9814 9.04638 28.0331L1.66669 32.2988C1.66669 24.6632 4.95129 12.122 14.0799 6.66187C14.1226 6.66187 14.1652 6.61921 14.2079 6.61921C14.2506 6.57655 14.2932 6.57656 14.3359 6.5339C16.1701 5.46747 18.2603 4.74229 20.5212 4.48635C21.1184 4.40104 21.7582 4.35838 22.3554 4.35838H22.526Z" fill="#0064FF"/>
</svg>
