<svg width="40" height="41" viewBox="0 0 40 41" fill="none" xmlns="http://www.w3.org/2000/svg">
<rect y="0.333496" width="40" height="40" rx="16" fill="white"/>
<g clip-path="url(#clip0_252_3586)">
<path d="M38.0672 20.3293C38.0688 23.9181 37.006 27.4268 35.0132 30.4115C33.0204 33.3962 30.1871 35.7228 26.8717 37.097C23.5564 38.4711 19.908 38.8311 16.388 38.1313C12.868 37.4316 9.63467 35.7036 7.09698 33.1659C4.55928 30.6282 2.83126 27.3948 2.13152 23.8749C1.43177 20.3549 1.79175 16.7065 3.1659 13.3911C4.54005 10.0758 6.86662 7.2425 9.85132 5.24967C12.836 3.25684 16.3447 2.19403 19.9336 2.19568C24.7422 2.19789 29.3533 4.10909 32.7535 7.50933C36.1538 10.9096 38.065 15.5206 38.0672 20.3293Z" fill="white"/>
<path d="M19.9334 37.6057C23.3504 37.6057 26.6906 36.5925 29.5317 34.6941C32.3728 32.7957 34.5872 30.0975 35.8948 26.9407C37.2024 23.7838 37.5445 20.3101 36.8779 16.9588C36.2113 13.6075 34.5659 10.5291 32.1497 8.11298C29.7336 5.69683 26.6552 4.05141 23.3039 3.3848C19.9526 2.71818 16.4789 3.06031 13.322 4.36793C10.1652 5.67554 7.46697 7.88991 5.56861 10.731C3.67025 13.5721 2.65698 16.9123 2.65698 20.3293C2.65698 24.9113 4.47718 29.3056 7.71714 32.5456C10.9571 35.7855 15.3514 37.6057 19.9334 37.6057Z" fill="#0083CA"/>
<mask id="mask0_252_3586" style="mask-type:alpha" maskUnits="userSpaceOnUse" x="2" y="3" width="36" height="35">
<path d="M19.9334 37.6058C23.3504 37.6058 26.6906 36.5925 29.5317 34.6941C32.3728 32.7958 34.5872 30.0976 35.8948 26.9407C37.2024 23.7839 37.5445 20.3101 36.8779 16.9588C36.2113 13.6075 34.5659 10.5292 32.1497 8.11302C29.7336 5.69686 26.6552 4.05144 23.3039 3.38483C19.9526 2.71821 16.4789 3.06034 13.322 4.36796C10.1652 5.67557 7.46697 7.88994 5.56861 10.731C3.67025 13.5721 2.65698 16.9123 2.65698 20.3293C2.65698 24.9113 4.47718 29.3056 7.71714 32.5456C10.9571 35.7856 15.3514 37.6058 19.9334 37.6058Z" fill="#0083CA"/>
</mask>
<g mask="url(#mask0_252_3586)">
<path d="M19.9917 28.6762C27.5813 28.6762 34.0891 30.79 36.877 33.7859C37.8411 31.5817 38.3371 29.2013 38.3333 26.7955C38.3333 21.9332 36.4018 17.27 32.9636 13.8318C29.5254 10.3937 24.8623 8.46213 20 8.46213C15.1377 8.46213 10.4745 10.3937 7.03637 13.8318C3.5982 17.27 1.66664 21.9332 1.66664 26.7955C1.66318 29.2004 2.15616 31.5802 3.11469 33.7859C5.89423 30.79 12.3937 28.6762 19.9917 28.6762Z" fill="#0083CA"/>
<path d="M19.9917 28.6936C27.5647 28.6936 34.0558 30.7908 36.8354 33.7701C37.7929 31.5816 38.286 29.2183 38.2834 26.8295C38.2834 17.0012 30.0862 9.01215 19.975 9.01215C9.8638 9.01215 1.66664 17.0012 1.66664 26.8295C1.66334 29.2183 2.15646 31.5818 3.11469 33.7701C5.92752 30.7908 12.3937 28.6936 19.9917 28.6936Z" fill="#0085CB"/>
<path d="M19.9917 28.7095C27.5397 28.7095 34.0142 30.7983 36.7855 33.7443C37.7418 31.576 38.235 29.2319 38.2335 26.862C38.2335 17.1087 30.053 9.16116 19.9917 9.16116C9.93042 9.16116 1.7499 17.117 1.7499 26.862C1.74639 29.2321 2.23969 31.5766 3.19794 33.7443C5.96084 30.7983 12.4353 28.7095 19.9917 28.7095Z" fill="#0086CC"/>
<path d="M19.9834 28.7345C27.5148 28.7345 33.9809 30.7983 36.7439 33.7277C37.6957 31.5901 38.189 29.2768 38.1919 26.9369C38.1919 17.2668 30.0363 9.35257 19.9917 9.35257C9.94706 9.35257 1.80815 17.2668 1.80815 26.9369C1.80275 29.2875 2.29334 31.6129 3.24786 33.761C5.99412 30.7983 12.452 28.7345 19.9834 28.7345Z" fill="#0088CC"/>
<path d="M19.9834 28.7511C27.4732 28.7511 33.9393 30.7983 36.6939 33.7027C37.6466 31.5746 38.1373 29.2686 38.1336 26.9369C38.1336 17.3417 30.003 9.46075 19.9834 9.46075C9.9637 9.46075 1.84145 17.3334 1.84145 26.9369C1.83813 29.2677 2.32585 31.573 3.27283 33.7027C6.02741 30.7983 12.4686 28.7511 19.9834 28.7511Z" fill="#0089CD"/>
<path d="M19.9834 28.7678C27.4731 28.7678 33.8977 30.7983 36.6273 33.6778C37.5732 31.5682 38.0611 29.2821 38.0587 26.9702C38.0587 17.4499 29.9448 9.6189 19.9584 9.6189C9.97201 9.6189 1.8664 17.4582 1.8664 26.9702C1.86441 29.2812 2.34929 31.5667 3.28945 33.6778C6.06067 30.7983 12.4936 28.7678 19.9834 28.7678Z" fill="#008BCE"/>
<path d="M19.9834 28.7927C27.4732 28.7927 33.8644 30.7983 36.6273 33.6611C37.5721 31.5688 38.0601 29.2992 38.0587 27.0035C38.0587 17.5664 29.9698 9.77701 20.0083 9.77701C10.0469 9.77701 1.95795 17.5664 1.95795 27.0035C1.95698 29.2983 2.44199 31.5673 3.38103 33.6611C6.09399 30.7983 12.5102 28.7927 19.9834 28.7927Z" fill="#008DCF"/>
<path d="M19.975 28.8094C27.4648 28.8094 33.8228 30.8067 36.5608 33.6361C37.499 31.5626 37.9841 29.3127 37.9838 27.0368C37.9838 17.6829 29.9198 9.92679 19.975 9.92679C10.0303 9.92679 1.97461 17.6829 1.97461 27.0368C1.97353 29.3128 2.4587 31.5628 3.39766 33.6361C6.12727 30.8067 12.5269 28.8094 19.975 28.8094Z" fill="#008ED0"/>
<path d="M19.975 28.826C27.4065 28.826 33.7895 30.8066 36.5108 33.6112C37.4535 31.5597 37.9391 29.3278 37.9339 27.0701C37.9339 17.7911 29.8865 10.0849 19.975 10.0849C10.0635 10.0849 2.02451 17.7994 2.02451 27.0701C2.01983 29.3268 2.50239 31.558 3.43923 33.6112C6.16052 30.8066 12.5435 28.826 19.975 28.826Z" fill="#0090D0"/>
<path d="M19.975 28.851C27.3816 28.851 33.7479 30.8067 36.4692 33.5945C37.4043 31.5585 37.8869 29.3439 37.8839 27.1034C37.8839 17.9492 29.8615 10.2347 19.975 10.2347C10.0885 10.2347 2.0661 17.9076 2.0661 27.1034C2.06625 29.3436 2.54878 31.5575 3.48085 33.5945C6.20214 30.8067 12.5601 28.851 19.975 28.851Z" fill="#0092D1"/>
<path d="M19.975 28.8676C27.3649 28.8676 33.7063 30.8066 36.4276 33.5695C37.3577 31.5524 37.8403 29.3579 37.8423 27.1367C37.8423 17.9825 29.8366 10.3845 19.975 10.3845C10.1135 10.3845 2.10773 18.0241 2.10773 27.1367C2.10788 29.3581 2.59057 31.553 3.52245 33.5695C6.23542 30.8066 12.5768 28.8676 19.975 28.8676Z" fill="#0093D2"/>
<path d="M19.9667 28.8843C27.34 28.8843 33.673 30.815 36.3777 33.5446C37.3084 31.5483 37.7912 29.3726 37.7924 27.1699C37.7924 18.1323 29.8033 10.526 19.9667 10.526C10.1301 10.526 2.15766 18.1239 2.15766 27.1699C2.15512 29.3721 2.63519 31.548 3.56408 33.5446C6.26873 30.815 12.5934 28.8843 19.9667 28.8843Z" fill="#0095D3"/>
<path d="M19.9667 28.9092C27.315 28.9092 33.6314 30.815 36.3361 33.5279C37.2632 31.5484 37.7434 29.3891 37.7425 27.2032C37.7425 18.2488 29.7784 10.6924 19.9667 10.6924C10.1551 10.6924 2.19929 18.2488 2.19929 27.2032C2.19673 29.3893 2.67698 31.549 3.60571 33.5279C6.30203 30.815 12.6101 28.9092 19.9667 28.9092Z" fill="#0097D4"/>
<path d="M19.9667 28.9259C27.2984 28.9259 33.5981 30.815 36.2861 33.503C37.212 31.5466 37.6924 29.4092 37.6925 27.2448C37.6925 18.3653 29.7533 10.8505 19.9667 10.8505C10.18 10.8505 2.24085 18.3403 2.24085 27.2448C2.24013 29.4093 2.72052 31.5469 3.64726 33.503C6.33526 30.815 12.6267 28.9259 19.9667 28.9259Z" fill="#0098D5"/>
<path d="M19.9584 28.9425C27.2734 28.9425 33.5565 30.815 36.2445 33.478C37.1636 31.5403 37.6411 29.4228 37.6426 27.2781C37.6426 18.4735 29.72 11.0003 19.9584 11.0003C10.1967 11.0003 2.29077 18.4901 2.29077 27.2781C2.29025 29.423 2.76789 31.541 3.68888 33.478C6.36856 30.815 12.6433 28.9425 19.9584 28.9425Z" fill="#009AD5"/>
<path d="M19.9584 28.9592C27.2484 28.9592 33.5149 30.8233 36.1946 33.4614C37.1126 31.541 37.5902 29.4399 37.5926 27.3114C37.5926 18.59 29.6951 11.1584 19.9584 11.1584C10.2216 11.1584 2.3324 18.59 2.3324 27.3114C2.33286 29.4401 2.8106 31.5417 3.73048 33.4614C6.40184 30.8233 12.66 28.9592 19.9584 28.9592Z" fill="#009CD6"/>
<path d="M19.9584 28.9842C27.2318 28.9842 33.4816 30.8233 36.153 33.4364C37.0645 31.5348 37.5393 29.4535 37.5428 27.3447C37.5428 18.7065 29.6618 11.3083 19.9584 11.3083C10.255 11.3083 2.40735 18.7065 2.40735 27.3447C2.40887 29.4546 2.88678 31.537 3.80544 33.4364C6.43518 30.8233 12.6767 28.9842 19.9584 28.9842Z" fill="#009ED7"/>
<path d="M19.9584 29.0008C27.2069 29.0008 33.44 30.8233 36.1031 33.4114C37.0179 31.5317 37.4932 29.4685 37.4929 27.378C37.4929 18.8147 29.6369 11.458 19.9584 11.458C10.28 11.458 2.40736 18.8147 2.40736 27.378C2.40495 29.4688 2.88032 31.5324 3.79714 33.4114C6.4685 30.8233 12.6933 29.0008 19.9584 29.0008Z" fill="#00A0D8"/>
<path d="M19.95 29.0174C27.1819 29.0174 33.4067 30.8233 36.0614 33.3948C36.9696 31.5308 37.442 29.4847 37.4429 27.4113C37.4429 18.9312 29.6119 11.5995 19.9667 11.5995C10.3215 11.5995 2.49054 18.9145 2.49054 27.4113C2.49051 29.4848 2.96295 31.5311 3.87199 33.3948C6.50174 30.8233 12.7099 29.0174 19.95 29.0174Z" fill="#00A1D9"/>
<path d="M19.9501 29.0424C27.1652 29.0424 33.3651 30.8316 36.0115 33.3698C36.9194 31.5265 37.392 29.4994 37.393 27.4446C37.393 19.0477 29.5786 11.766 19.9168 11.766C10.255 11.766 2.44061 19.0477 2.44061 27.4446C2.44447 29.499 2.91694 31.5255 3.82207 33.3698C6.56832 30.8316 12.7349 29.0424 19.9501 29.0424Z" fill="#00A3DA"/>
<path d="M19.9501 29.059C27.1403 29.059 33.3235 30.8316 35.9699 33.3449C36.8686 31.5338 37.3411 29.5412 37.3513 27.5195C37.3513 19.1975 29.5536 11.9657 19.9501 11.9657C10.3465 11.9657 2.55713 19.1975 2.55713 27.5195C2.5645 29.5406 3.03419 31.5332 3.93025 33.3449C6.56832 30.8316 12.7516 29.059 19.9501 29.059Z" fill="#00A5DB"/>
<path d="M19.9501 29.0757C27.1153 29.0757 33.2653 30.8316 35.92 33.3282C36.8277 31.5205 37.3008 29.5257 37.3014 27.5028C37.3014 19.2641 29.5287 12.0656 19.9501 12.0656C10.3715 12.0656 2.59875 19.2641 2.59875 27.5028C2.59865 29.5248 3.06873 31.5191 3.97188 33.3282C6.56834 30.8316 12.7682 29.0757 19.9501 29.0757Z" fill="#00A7DC"/>
<path d="M19.9418 29.1007C27.0987 29.1007 33.2569 30.8316 35.8784 33.3033C36.778 31.5196 37.2482 29.5504 37.2515 27.5528C37.2515 19.3889 29.4954 12.232 19.9418 12.232C10.3881 12.232 2.64868 19.3889 2.64868 27.5528C2.64907 29.5498 3.11644 31.519 4.01347 33.3033C6.6349 30.8316 12.7849 29.1007 19.9418 29.1007Z" fill="#00A9DD"/>
<path d="M19.9417 29.1173C27.0737 29.1173 33.2153 30.8399 35.8284 33.2783C36.728 31.5155 37.1984 29.5651 37.2015 27.586C37.2015 19.4971 29.4704 12.3818 19.9417 12.3818C10.4131 12.3818 2.69025 19.4971 2.69025 27.586C2.69356 29.5641 3.16104 31.5138 4.05506 33.2783C6.66817 30.8399 12.8015 29.1173 19.9417 29.1173Z" fill="#00ABDE"/>
<path d="M19.9418 29.1339C27.0571 29.1339 33.1737 30.8399 35.7535 33.2949C36.6455 31.5475 37.1131 29.6145 37.1183 27.6526C37.1183 19.6469 29.4122 12.5732 19.9085 12.5732C10.4048 12.5732 2.69861 19.6469 2.69861 27.6526C2.71163 29.6039 3.18191 31.525 4.07173 33.2616C6.7098 30.8399 12.8181 29.1339 19.9418 29.1339Z" fill="#00ADDE"/>
<path d="M19.9334 29.1506C27.032 29.1506 33.1321 30.815 35.7452 33.2367C36.6405 31.5114 37.1086 29.5964 37.11 27.6526C37.11 19.7301 29.4205 12.673 19.9417 12.673C10.463 12.673 2.7901 19.7134 2.7901 27.6526C2.79183 29.5953 3.25686 31.5096 4.14659 33.2367C6.74305 30.8399 12.8347 29.1506 19.9334 29.1506Z" fill="#00AFDF"/>
<path d="M19.9334 29.1755C27.0071 29.1755 33.0988 30.8399 35.6953 33.2117C36.5839 31.5051 37.0491 29.6099 37.0518 27.6859C37.0518 19.8383 29.3872 12.8395 19.9334 12.8395C10.4796 12.8395 2.82343 19.8383 2.82343 27.6859C2.82509 29.6101 3.29038 31.5055 4.17991 33.2117C6.77637 30.8399 12.8514 29.1755 19.9334 29.1755Z" fill="#00B1E0"/>
<path d="M19.9334 29.1922C26.9904 29.1922 33.0572 30.8566 35.6453 33.1951C36.5335 31.5063 36.999 29.6273 37.0018 27.7192C37.0018 19.9548 29.3622 12.9976 19.9334 12.9976C10.5046 12.9976 2.86499 19.9548 2.86499 27.7192C2.86679 29.6275 3.33231 31.5067 4.22148 33.1951C6.80962 30.8483 12.868 29.1922 19.9334 29.1922Z" fill="#00B3E1"/>
<path d="M19.9334 29.2088C26.9655 29.2088 33.0239 30.8732 35.6038 33.1701C36.4856 31.5002 36.9482 29.6409 36.9519 27.7525C36.9519 20.063 29.329 13.1474 19.9334 13.1474C10.5379 13.1474 2.91498 20.0713 2.91498 27.7525C2.91866 29.6409 3.38135 31.5002 4.26316 33.1701C6.84298 30.8483 12.8847 29.2088 19.9334 29.2088Z" fill="#0DB5E2"/>
<path d="M19.9251 29.2338C26.9406 29.2338 32.9823 30.8483 35.5538 33.1451C36.4349 31.4959 36.8979 29.6556 36.902 27.7858C36.902 20.1795 29.304 13.3055 19.9251 13.3055C10.5462 13.3055 2.9566 20.1795 2.9566 27.7858C2.9607 29.6556 3.42362 31.4959 4.30476 33.1451C6.87625 30.8483 12.9014 29.2338 19.9251 29.2338Z" fill="#19B7E3"/>
<path d="M19.9251 29.2504C26.9239 29.2504 32.9407 30.8483 35.5122 33.1285C36.3911 31.4994 36.8542 29.6785 36.8603 27.8274C36.8603 20.3376 29.279 13.4553 19.9251 13.4553C10.5712 13.4553 2.99817 20.296 2.99817 27.8274C3.00328 29.6786 3.46643 31.4998 4.34633 33.1285C6.9095 30.8483 12.918 29.2504 19.9251 29.2504Z" fill="#21B9E4"/>
<path d="M19.9251 29.2671C26.8989 29.2671 32.9074 30.8566 35.4706 33.1035C36.3425 31.493 36.8027 29.692 36.8104 27.8607C36.8104 20.3709 29.2457 13.6134 19.9251 13.6134C10.6045 13.6134 3.0481 20.4042 3.0481 27.8607C3.05183 29.6915 3.50931 31.4928 4.37962 33.1035C6.94279 30.8566 12.9346 29.2671 19.9251 29.2671Z" fill="#28BBE5"/>
<path d="M19.9251 29.3087C26.8906 29.3087 32.8907 30.8899 35.4456 33.1201C36.3184 31.522 36.7788 29.7315 36.7854 27.9106C36.7854 20.5123 29.2374 13.7632 19.9251 13.7632C10.6128 13.7632 3.07306 20.529 3.07306 27.9106C3.07568 29.731 3.5334 31.5218 4.40458 33.1201C6.95943 30.8899 12.9513 29.3087 19.9251 29.3087Z" fill="#37BDE6"/>
<path d="M19.9251 29.3586C26.8823 29.3586 32.8741 30.9232 35.4206 33.1451C36.2947 31.5565 36.7554 29.7737 36.7605 27.9605C36.7605 20.6122 29.2207 13.8881 19.9251 13.8881C10.6294 13.8881 3.08972 20.6122 3.08972 27.9605C3.09858 29.7722 3.55604 31.5534 4.42124 33.1451C6.97609 30.9232 12.9596 29.3586 19.9251 29.3586Z" fill="#43BFE6"/>
<path d="M19.9251 29.4335C26.8739 29.4335 32.8491 30.9897 35.404 33.1951C36.2717 31.6194 36.7295 29.8509 36.7355 28.0521C36.7355 20.7454 29.2457 14.0628 19.9251 14.0628C10.6045 14.0628 3.11469 20.7204 3.11469 28.0521C3.11956 29.851 3.5775 31.6198 4.44621 33.1951C6.99273 30.9564 12.9679 29.4335 19.9251 29.4335Z" fill="#4DC0E7"/>
<path d="M19.9251 29.4335C26.8656 29.4335 32.8325 30.9814 35.379 33.1701C36.2503 31.6075 36.7112 29.8495 36.7189 28.0604C36.7189 20.8036 29.2291 14.1627 19.9251 14.1627C10.6211 14.1627 3.13965 20.8203 3.13965 28.0604C3.14577 29.8476 3.60076 31.6046 4.46284 33.1701C7.00937 30.9898 12.9762 29.4335 19.9251 29.4335Z" fill="#56C2E8"/>
<path d="M19.9251 29.4918C26.8573 29.4918 32.8158 31.023 35.3624 33.1951C36.226 31.6448 36.684 29.9015 36.6939 28.127C36.6939 20.9201 29.2041 14.3125 19.9251 14.3125C10.6461 14.3125 3.16461 20.9201 3.16461 28.127C3.16691 29.9014 3.62236 31.6459 4.4878 33.1951C7.02601 31.023 12.9845 29.4918 19.9251 29.4918Z" fill="#5EC4E8"/>
<path d="M19.9251 29.5334C26.8407 29.5334 32.7992 31.0563 35.3374 33.22C36.2044 31.6802 36.6628 29.944 36.669 28.1769C36.669 21.02 29.1792 14.4539 19.9251 14.4539C10.6711 14.4539 3.18127 21.02 3.18127 28.1769C3.18854 29.9428 3.64381 31.678 4.50447 33.22C7.05099 31.0979 12.9929 29.5334 19.9251 29.5334Z" fill="#65C6E9"/>
<path d="M19.9251 29.575C26.8323 29.575 32.7825 31.0896 35.3207 33.2367C36.1783 31.7115 36.6337 29.9932 36.644 28.2435C36.644 21.1365 29.1542 14.6121 19.9251 14.6121C10.696 14.6121 3.2395 21.1115 3.2395 28.2268C3.24866 29.9767 3.70408 31.6953 4.56269 33.22C7.06761 31.0979 13.0095 29.575 19.9251 29.575Z" fill="#6DC7EA"/>
<path d="M19.9251 29.6166C26.824 29.6166 32.7659 31.1229 35.2958 33.2533C36.16 31.7308 36.6158 30.0108 36.619 28.2601C36.619 21.1948 29.1292 14.7119 19.9251 14.7119C10.721 14.7119 3.2395 21.2197 3.2395 28.2851C3.23979 30.035 3.69274 31.7552 4.55436 33.2783C7.08425 31.0979 13.0178 29.6166 19.9251 29.6166Z" fill="#74C9EA"/>
<path d="M19.9251 29.6665C26.8157 29.6665 32.7493 31.1562 35.2791 33.2783C36.1343 31.7702 36.5898 30.0686 36.6023 28.335C36.6023 21.3196 29.1125 14.8784 19.9584 14.8784C10.8042 14.8784 3.31439 21.3279 3.31439 28.335C3.31914 30.0686 3.7721 31.7714 4.62928 33.2783C7.10091 31.1562 13.0261 29.6665 19.9251 29.6665Z" fill="#7ACBEB"/>
<path d="M19.9251 29.7081C26.8074 29.7081 32.7326 31.1895 35.2542 33.2949C36.1126 31.8033 36.5686 30.1142 36.5774 28.3933C36.5774 21.4278 29.0876 15.0198 19.9334 15.0198C10.7792 15.0198 3.28943 21.4278 3.28943 28.3933C3.29832 30.1131 3.75125 31.8015 4.60432 33.2949C7.11756 31.1895 13.0345 29.7081 19.9251 29.7081Z" fill="#81CDEC"/>
<path d="M19.9251 29.7498C26.799 29.7498 32.716 31.2227 35.2375 33.3116C36.0896 31.8299 36.5427 30.1524 36.5524 28.4432C36.5524 21.5276 29.1042 15.128 19.9084 15.128C10.7126 15.128 3.26447 21.5027 3.26447 28.4432C3.26919 30.1531 3.72257 31.8318 4.57933 33.3116C7.13418 31.2227 13.0428 29.7498 19.9251 29.7498Z" fill="#87CFEC"/>
<path d="M19.9251 29.7997C26.7907 29.7997 32.691 31.256 35.2126 33.3282C36.0652 31.8588 36.5185 30.1919 36.5275 28.4931C36.5275 21.6275 29.0876 15.2945 19.9251 15.2945C10.7626 15.2945 3.32275 21.6275 3.32275 28.4931C3.32882 30.1912 3.77927 31.8582 4.62931 33.3282C7.15087 31.256 13.0511 29.7997 19.9251 29.7997Z" fill="#8ED1ED"/>
<path d="M19.9251 29.8413C26.7824 29.8413 32.6744 31.2893 35.1959 33.3532C36.0462 31.8949 36.4995 30.2394 36.5108 28.5514C36.5108 21.7274 29.0793 15.4359 19.9251 15.4359C10.7709 15.4359 3.34772 21.7357 3.34772 28.5514C3.35494 30.2388 3.80551 31.8947 4.65428 33.3532C7.16751 31.2893 13.0678 29.8413 19.9251 29.8413Z" fill="#94D3EE"/>
<path d="M19.9251 29.8829C26.7741 29.8829 32.6577 31.3226 35.171 33.3698C36.0367 31.9282 36.5047 30.2828 36.5274 28.6013C36.5274 21.8272 29.1042 15.5774 19.9667 15.5774C10.8292 15.5774 3.40594 21.8356 3.40594 28.6013C3.41313 30.2783 3.86388 31.9234 4.71248 33.3698C7.18411 31.3226 13.0761 29.8829 19.9251 29.8829Z" fill="#9AD5EF"/>
<path d="M19.9251 29.9245C26.7657 29.9245 32.6411 31.3559 35.146 33.3865C35.9956 31.9553 36.4494 30.3239 36.4609 28.6596C36.4609 21.9354 29.0543 15.7189 19.9251 15.7189C10.7958 15.7189 3.38928 21.9354 3.38928 28.6596C3.39666 30.3234 3.84768 31.9551 4.69584 33.3865C7.20076 31.3559 13.0844 29.9245 19.9251 29.9245Z" fill="#A0D7F0"/>
<path d="M19.9251 29.9745C26.7574 29.9745 32.6244 31.3892 35.1293 33.4031C35.9733 31.9821 36.4242 30.3622 36.4359 28.7095C36.4359 22.0519 29.0376 15.8604 19.9251 15.8604C10.8125 15.8604 3.41425 22.0353 3.41425 28.7095C3.41897 30.3621 3.86732 31.983 4.71247 33.4031C7.21739 31.3892 13.0927 29.9745 19.9251 29.9745Z" fill="#A6D9F0"/>
<path d="M19.9251 30.0161C26.7491 30.0161 32.6078 31.4225 35.1044 33.4281C35.9545 32.0184 36.4087 30.4056 36.4192 28.7594C36.4192 22.1018 29.0293 16.0018 19.9251 16.0018C10.8208 16.0018 3.43921 22.1435 3.43921 28.7594C3.44473 30.404 3.89318 32.0167 4.73744 33.4281C7.23403 31.4225 13.101 30.0161 19.9251 30.0161Z" fill="#ACDCF1"/>
<path d="M19.9251 30.0577C26.7325 30.0577 32.5912 31.4558 35.0878 33.4447C35.93 32.0473 36.3813 30.4492 36.3943 28.8177C36.3943 22.235 29.0127 16.1433 19.9251 16.1433C10.8375 16.1433 3.46423 22.2433 3.46423 28.8177C3.47142 30.4478 3.91697 32.046 4.75416 33.4447C7.25907 31.4558 13.1094 30.0577 19.9251 30.0577Z" fill="#B2DEF2"/>
<path d="M19.9251 30.0993C26.7241 30.0993 32.5745 31.489 35.0628 33.4281C35.905 32.0428 36.3565 30.4554 36.3693 28.8343C36.3693 22.3099 28.996 16.2515 19.9251 16.2515C10.8541 16.2515 3.48083 22.3099 3.48083 28.8343C3.48573 30.4554 3.93472 32.0442 4.77906 33.4281C7.27566 31.489 13.126 30.0993 19.9251 30.0993Z" fill="#B8E0F3"/>
<path d="M19.9251 30.1492C26.7158 30.1492 32.5578 31.5224 35.0461 33.478C35.8831 32.1031 36.3317 30.5271 36.3443 28.9176C36.3443 22.4348 28.9877 16.4346 19.9251 16.4346C10.8624 16.4346 3.5058 22.4514 3.5058 28.9176C3.51294 30.5279 3.962 32.1054 4.80403 33.478C7.2923 31.5224 13.1343 30.1492 19.9251 30.1492Z" fill="#BDE2F4"/>
<path d="M19.9251 30.1908C26.7075 30.1908 32.5413 31.5556 35.0212 33.5196C35.859 32.1573 36.3079 30.5917 36.3194 28.9924C36.3194 22.5596 28.9711 16.576 19.9251 16.576C10.8791 16.576 3.53082 22.5679 3.53082 28.9924C3.53814 30.5911 3.98432 32.1571 4.82072 33.5196C7.30899 31.5556 13.1427 30.1908 19.9251 30.1908Z" fill="#C3E5F5"/>
<path d="M19.9251 30.2657C26.6992 30.2657 32.5163 31.6222 35.0046 33.5529C35.8384 32.2011 36.2873 30.6473 36.3028 29.0591C36.3028 22.6761 28.9628 16.7342 19.9251 16.7342C10.8874 16.7342 3.55579 22.6844 3.55579 29.0591C3.56027 30.6465 4.00383 32.2019 4.83738 33.5529C7.32565 31.5889 13.151 30.2657 19.9251 30.2657Z" fill="#C9E7F5"/>
<path d="M19.9251 30.2657C26.6909 30.2657 32.4996 31.6056 34.9796 33.5196C35.8128 32.1828 36.262 30.6425 36.2778 29.0673C36.2778 22.726 28.9461 16.8257 19.9251 16.8257C10.904 16.8257 3.57239 22.7759 3.57239 29.084C3.58009 30.6591 4.0268 32.2009 4.86231 33.5363C7.34226 31.6222 13.1593 30.2657 19.9251 30.2657Z" fill="#CEE9F6"/>
<path d="M19.9251 30.324C26.6825 30.324 32.483 31.6555 34.9629 33.5612C35.7924 32.2324 36.2388 30.7003 36.2528 29.1339C36.2528 22.8508 28.9378 16.9838 19.9251 16.9838C10.9124 16.9838 3.59735 22.8508 3.59735 29.1339C3.60448 30.7141 4.05735 32.2602 4.90391 33.5945C7.4005 31.6555 13.1676 30.324 19.9251 30.324Z" fill="#D4ECF7"/>
<path d="M19.9251 30.3656C26.6742 30.3656 32.4663 31.6888 34.9047 33.5779C35.7356 32.265 36.1824 30.7458 36.1946 29.1922C36.1946 22.9507 28.8879 17.1253 19.8918 17.1253C10.8957 17.1253 3.58905 22.9507 3.58905 29.1922C3.60194 30.7545 4.05788 32.2811 4.90391 33.5945C7.40051 31.6888 13.2259 30.3656 19.9251 30.3656Z" fill="#DAEEF8"/>
<path d="M19.9251 30.4072C26.6659 30.4072 32.4497 31.7221 34.9047 33.5945C35.7358 32.2936 36.1856 30.7858 36.2029 29.2421C36.2029 23.0506 28.8962 17.2668 19.9168 17.2668C10.9374 17.2668 3.63898 23.0922 3.63898 29.2421C3.64496 30.7827 4.08322 32.2907 4.90391 33.5945C7.40051 31.7221 13.2259 30.4072 19.9251 30.4072Z" fill="#DFF1F9"/>
<path d="M19.9251 30.4571C26.6576 30.4571 32.4081 31.7554 34.9046 33.6112C35.7339 32.3222 36.1812 30.8247 36.1946 29.2921C36.1946 23.1504 28.9045 17.4083 19.9334 17.4083C10.9623 17.4083 3.67224 23.1588 3.67224 29.2921C3.67858 30.8246 4.12328 32.3232 4.95383 33.6112C7.4005 31.7554 13.2259 30.4571 19.9251 30.4571Z" fill="#E5F3FA"/>
<path d="M19.9251 30.4988C26.6492 30.4988 32.4081 31.7887 34.9046 33.6361C35.7312 32.3583 36.1785 30.8722 36.1946 29.3503C36.1946 23.2586 28.9128 17.5497 19.9584 17.5497C11.0039 17.5497 3.72217 23.2586 3.72217 29.3503C3.73234 30.8706 4.17387 32.3569 4.99543 33.6361C7.40048 31.7887 13.2259 30.4988 19.9251 30.4988Z" fill="#EBF6FB"/>
<path d="M19.9251 30.5403C26.6409 30.5403 32.4081 31.8219 34.8547 33.6528C35.6757 32.3851 36.1201 30.9105 36.1363 29.4002C36.1363 23.3585 28.8712 17.6912 19.9251 17.6912C10.9789 17.6912 3.71387 23.3585 3.71387 29.4335C3.72299 30.9436 4.16487 32.4194 4.98713 33.686C7.44212 31.8219 13.2259 30.5403 19.9251 30.5403Z" fill="#F1F8FD"/>
<path d="M19.9251 30.582C26.6326 30.582 32.4081 31.8552 34.8298 33.6694C35.6575 32.4111 36.1027 30.9397 36.1114 29.4335C36.1114 23.4334 28.8546 17.7827 19.9251 17.7827C10.9956 17.7827 3.73883 23.4167 3.73883 29.4335C3.74642 30.9297 4.18563 32.3918 5.00376 33.6444C7.46707 31.8552 13.2259 30.582 19.9251 30.582Z" fill="#F7FBFE"/>
<path d="M19.9251 30.6319C26.5827 30.6319 32.3582 31.8885 34.8132 33.6944C35.6276 32.4576 36.0722 31.0141 36.0947 29.5334C36.0947 23.5832 28.8463 17.9991 19.9251 17.9991C11.0039 17.9991 3.75549 23.5915 3.75549 29.5334C3.7709 31.014 4.21299 32.4587 5.02876 33.6944C7.48374 31.9301 13.2259 30.6319 19.9251 30.6319Z" fill="white"/>
<path d="M19.9251 24.69C14.5389 24.6404 9.18618 25.5419 4.11334 27.353C5.47187 30.4041 7.68566 32.996 10.4867 34.815C13.2878 36.634 16.5561 37.6021 19.896 37.6021C23.2359 37.6021 26.5042 36.634 29.3053 34.815C32.1063 32.996 34.3201 30.4041 35.6786 27.353C30.6248 25.5463 25.292 24.6448 19.9251 24.69Z" fill="#0083CA"/>
</g>
</g>
<defs>
<clipPath id="clip0_252_3586">
<rect width="36.6667" height="36.2755" fill="white" transform="translate(1.66669 2.19568)"/>
</clipPath>
</defs>
</svg>
